<mxfile host="app.diagrams.net" modified="2024-04-25T22:24:28.255Z" agent="Mozilla/5.0 (Windows NT 10.0; Win64; x64) AppleWebKit/537.36 (KHTML, like Gecko) Chrome/121.0.0.0 Safari/537.36 OPR/107.0.0.0" etag="Flx2y1GXXkqA4qiSfsfK" version="24.3.0" type="device">
  <diagram name="PÃ¡gina-1" id="JB7x0olWa1UfAe_EZ8ZA">
    <mxGraphModel dx="961" dy="544" grid="1" gridSize="10" guides="1" tooltips="1" connect="1" arrows="1" fold="1" page="1" pageScale="1" pageWidth="827" pageHeight="1169" math="0" shadow="0">
      <root>
        <mxCell id="0" />
        <mxCell id="1" parent="0" />
        <mxCell id="rZgHtx4meNHUPGNzYNCi-25" style="edgeStyle=none;rounded=0;orthogonalLoop=1;jettySize=auto;html=1;exitX=1;exitY=0.5;exitDx=0;exitDy=0;entryX=0;entryY=0.5;entryDx=0;entryDy=0;endArrow=classic;endFill=1;" parent="1" source="rZgHtx4meNHUPGNzYNCi-1" target="rZgHtx4meNHUPGNzYNCi-2" edge="1">
          <mxGeometry relative="1" as="geometry" />
        </mxCell>
        <mxCell id="rZgHtx4meNHUPGNzYNCi-1" value="0" style="ellipse;whiteSpace=wrap;html=1;" parent="1" vertex="1">
          <mxGeometry x="40" y="120" width="40" height="40" as="geometry" />
        </mxCell>
        <mxCell id="rZgHtx4meNHUPGNzYNCi-21" style="rounded=0;orthogonalLoop=1;jettySize=auto;html=1;exitX=1;exitY=0;exitDx=0;exitDy=0;entryX=0;entryY=0.5;entryDx=0;entryDy=0;endArrow=classic;endFill=1;" parent="1" source="rZgHtx4meNHUPGNzYNCi-2" target="rZgHtx4meNHUPGNzYNCi-8" edge="1">
          <mxGeometry relative="1" as="geometry" />
        </mxCell>
        <mxCell id="rZgHtx4meNHUPGNzYNCi-22" style="rounded=0;orthogonalLoop=1;jettySize=auto;html=1;exitX=1;exitY=1;exitDx=0;exitDy=0;entryX=0;entryY=0.5;entryDx=0;entryDy=0;endArrow=classic;endFill=1;" parent="1" source="rZgHtx4meNHUPGNzYNCi-2" target="rZgHtx4meNHUPGNzYNCi-13" edge="1">
          <mxGeometry relative="1" as="geometry" />
        </mxCell>
        <mxCell id="rZgHtx4meNHUPGNzYNCi-2" value="1" style="ellipse;whiteSpace=wrap;html=1;" parent="1" vertex="1">
          <mxGeometry x="120" y="120" width="40" height="40" as="geometry" />
        </mxCell>
        <mxCell id="rZgHtx4meNHUPGNzYNCi-7" value="{" style="text;html=1;align=center;verticalAlign=middle;whiteSpace=wrap;rounded=0;" parent="1" vertex="1">
          <mxGeometry x="80" y="120" width="40" height="20" as="geometry" />
        </mxCell>
        <mxCell id="rZgHtx4meNHUPGNzYNCi-23" style="edgeStyle=none;rounded=0;orthogonalLoop=1;jettySize=auto;html=1;exitX=1;exitY=0.5;exitDx=0;exitDy=0;entryX=0;entryY=0.5;entryDx=0;entryDy=0;endArrow=classic;endFill=1;" parent="1" source="rZgHtx4meNHUPGNzYNCi-8" target="rZgHtx4meNHUPGNzYNCi-14" edge="1">
          <mxGeometry relative="1" as="geometry" />
        </mxCell>
        <mxCell id="rZgHtx4meNHUPGNzYNCi-8" value="2" style="ellipse;whiteSpace=wrap;html=1;" parent="1" vertex="1">
          <mxGeometry x="200" y="80" width="40" height="40" as="geometry" />
        </mxCell>
        <mxCell id="rZgHtx4meNHUPGNzYNCi-11" value="0" style="text;html=1;align=center;verticalAlign=middle;whiteSpace=wrap;rounded=0;" parent="1" vertex="1">
          <mxGeometry x="240" y="80" width="40" height="20" as="geometry" />
        </mxCell>
        <mxCell id="rZgHtx4meNHUPGNzYNCi-12" value="1" style="text;html=1;align=center;verticalAlign=middle;whiteSpace=wrap;rounded=0;" parent="1" vertex="1">
          <mxGeometry x="240" y="160" width="40" height="20" as="geometry" />
        </mxCell>
        <mxCell id="rZgHtx4meNHUPGNzYNCi-24" style="edgeStyle=none;rounded=0;orthogonalLoop=1;jettySize=auto;html=1;exitX=1;exitY=0.5;exitDx=0;exitDy=0;entryX=0;entryY=0.5;entryDx=0;entryDy=0;endArrow=classic;endFill=1;" parent="1" source="rZgHtx4meNHUPGNzYNCi-13" target="rZgHtx4meNHUPGNzYNCi-15" edge="1">
          <mxGeometry relative="1" as="geometry" />
        </mxCell>
        <mxCell id="rZgHtx4meNHUPGNzYNCi-13" value="4" style="ellipse;whiteSpace=wrap;html=1;" parent="1" vertex="1">
          <mxGeometry x="200" y="160" width="40" height="40" as="geometry" />
        </mxCell>
        <mxCell id="rZgHtx4meNHUPGNzYNCi-27" style="edgeStyle=none;rounded=0;orthogonalLoop=1;jettySize=auto;html=1;exitX=1;exitY=0.5;exitDx=0;exitDy=0;entryX=0;entryY=0;entryDx=0;entryDy=0;endArrow=classic;endFill=1;" parent="1" source="rZgHtx4meNHUPGNzYNCi-14" target="rZgHtx4meNHUPGNzYNCi-26" edge="1">
          <mxGeometry relative="1" as="geometry" />
        </mxCell>
        <mxCell id="rZgHtx4meNHUPGNzYNCi-14" value="3" style="ellipse;whiteSpace=wrap;html=1;" parent="1" vertex="1">
          <mxGeometry x="280" y="80" width="40" height="40" as="geometry" />
        </mxCell>
        <mxCell id="rZgHtx4meNHUPGNzYNCi-28" style="edgeStyle=none;rounded=0;orthogonalLoop=1;jettySize=auto;html=1;exitX=1;exitY=0.5;exitDx=0;exitDy=0;entryX=0;entryY=1;entryDx=0;entryDy=0;endArrow=classic;endFill=1;" parent="1" source="rZgHtx4meNHUPGNzYNCi-15" target="rZgHtx4meNHUPGNzYNCi-26" edge="1">
          <mxGeometry relative="1" as="geometry" />
        </mxCell>
        <mxCell id="rZgHtx4meNHUPGNzYNCi-15" value="5" style="ellipse;whiteSpace=wrap;html=1;" parent="1" vertex="1">
          <mxGeometry x="280" y="160" width="40" height="40" as="geometry" />
        </mxCell>
        <mxCell id="rZgHtx4meNHUPGNzYNCi-30" style="edgeStyle=none;rounded=0;orthogonalLoop=1;jettySize=auto;html=1;exitX=0.5;exitY=0;exitDx=0;exitDy=0;entryX=0.5;entryY=0;entryDx=0;entryDy=0;endArrow=classic;endFill=1;" parent="1" source="rZgHtx4meNHUPGNzYNCi-26" target="rZgHtx4meNHUPGNzYNCi-2" edge="1">
          <mxGeometry relative="1" as="geometry">
            <Array as="points">
              <mxPoint x="380" y="60" />
              <mxPoint x="140" y="60" />
            </Array>
          </mxGeometry>
        </mxCell>
        <mxCell id="rZgHtx4meNHUPGNzYNCi-33" style="edgeStyle=none;rounded=0;orthogonalLoop=1;jettySize=auto;html=1;exitX=1;exitY=0.5;exitDx=0;exitDy=0;entryX=0;entryY=0.5;entryDx=0;entryDy=0;" parent="1" source="rZgHtx4meNHUPGNzYNCi-26" target="rZgHtx4meNHUPGNzYNCi-45" edge="1">
          <mxGeometry relative="1" as="geometry">
            <mxPoint x="440" y="140" as="targetPoint" />
          </mxGeometry>
        </mxCell>
        <mxCell id="rZgHtx4meNHUPGNzYNCi-26" value="6" style="ellipse;whiteSpace=wrap;html=1;" parent="1" vertex="1">
          <mxGeometry x="360" y="120" width="40" height="40" as="geometry" />
        </mxCell>
        <mxCell id="rZgHtx4meNHUPGNzYNCi-34" value=":" style="text;html=1;align=center;verticalAlign=middle;whiteSpace=wrap;rounded=0;" parent="1" vertex="1">
          <mxGeometry x="400" y="120" width="40" height="20" as="geometry" />
        </mxCell>
        <mxCell id="rZgHtx4meNHUPGNzYNCi-43" style="rounded=0;orthogonalLoop=1;jettySize=auto;html=1;exitX=1;exitY=0;exitDx=0;exitDy=0;entryX=0;entryY=1;entryDx=0;entryDy=0;endArrow=classic;endFill=1;" parent="1" source="rZgHtx4meNHUPGNzYNCi-45" target="rZgHtx4meNHUPGNzYNCi-47" edge="1">
          <mxGeometry relative="1" as="geometry" />
        </mxCell>
        <mxCell id="rZgHtx4meNHUPGNzYNCi-44" style="rounded=0;orthogonalLoop=1;jettySize=auto;html=1;exitX=1;exitY=1;exitDx=0;exitDy=0;entryX=0;entryY=0;entryDx=0;entryDy=0;endArrow=classic;endFill=1;" parent="1" source="rZgHtx4meNHUPGNzYNCi-45" target="rZgHtx4meNHUPGNzYNCi-51" edge="1">
          <mxGeometry relative="1" as="geometry" />
        </mxCell>
        <mxCell id="rZgHtx4meNHUPGNzYNCi-68" style="edgeStyle=none;rounded=0;orthogonalLoop=1;jettySize=auto;html=1;exitX=1;exitY=0.5;exitDx=0;exitDy=0;entryX=0;entryY=0.5;entryDx=0;entryDy=0;" parent="1" source="rZgHtx4meNHUPGNzYNCi-45" target="rZgHtx4meNHUPGNzYNCi-66" edge="1">
          <mxGeometry relative="1" as="geometry" />
        </mxCell>
        <mxCell id="rZgHtx4meNHUPGNzYNCi-45" value="7" style="ellipse;whiteSpace=wrap;html=1;" parent="1" vertex="1">
          <mxGeometry x="440" y="120" width="40" height="40" as="geometry" />
        </mxCell>
        <mxCell id="rZgHtx4meNHUPGNzYNCi-46" style="edgeStyle=none;rounded=0;orthogonalLoop=1;jettySize=auto;html=1;exitX=1;exitY=0.5;exitDx=0;exitDy=0;entryX=0;entryY=0.5;entryDx=0;entryDy=0;endArrow=classic;endFill=1;" parent="1" source="rZgHtx4meNHUPGNzYNCi-47" target="rZgHtx4meNHUPGNzYNCi-53" edge="1">
          <mxGeometry relative="1" as="geometry" />
        </mxCell>
        <mxCell id="rZgHtx4meNHUPGNzYNCi-47" value="8" style="ellipse;whiteSpace=wrap;html=1;" parent="1" vertex="1">
          <mxGeometry x="520" y="40" width="40" height="40" as="geometry" />
        </mxCell>
        <mxCell id="rZgHtx4meNHUPGNzYNCi-48" value="0" style="text;html=1;align=center;verticalAlign=middle;whiteSpace=wrap;rounded=0;" parent="1" vertex="1">
          <mxGeometry x="560" y="40" width="40" height="20" as="geometry" />
        </mxCell>
        <mxCell id="rZgHtx4meNHUPGNzYNCi-49" value="x" style="text;html=1;align=center;verticalAlign=middle;whiteSpace=wrap;rounded=0;" parent="1" vertex="1">
          <mxGeometry x="560" y="200" width="40" height="20" as="geometry" />
        </mxCell>
        <mxCell id="rZgHtx4meNHUPGNzYNCi-50" style="edgeStyle=none;rounded=0;orthogonalLoop=1;jettySize=auto;html=1;exitX=1;exitY=0.5;exitDx=0;exitDy=0;entryX=0;entryY=0.5;entryDx=0;entryDy=0;endArrow=classic;endFill=1;" parent="1" source="rZgHtx4meNHUPGNzYNCi-51" target="rZgHtx4meNHUPGNzYNCi-55" edge="1">
          <mxGeometry relative="1" as="geometry" />
        </mxCell>
        <mxCell id="rZgHtx4meNHUPGNzYNCi-51" value="12" style="ellipse;whiteSpace=wrap;html=1;" parent="1" vertex="1">
          <mxGeometry x="520" y="200" width="40" height="40" as="geometry" />
        </mxCell>
        <mxCell id="rZgHtx4meNHUPGNzYNCi-52" style="edgeStyle=none;rounded=0;orthogonalLoop=1;jettySize=auto;html=1;exitX=1;exitY=1;exitDx=0;exitDy=0;entryX=0;entryY=0;entryDx=0;entryDy=0;endArrow=classic;endFill=1;" parent="1" source="rZgHtx4meNHUPGNzYNCi-53" target="rZgHtx4meNHUPGNzYNCi-57" edge="1">
          <mxGeometry relative="1" as="geometry" />
        </mxCell>
        <mxCell id="rZgHtx4meNHUPGNzYNCi-53" value="9" style="ellipse;whiteSpace=wrap;html=1;" parent="1" vertex="1">
          <mxGeometry x="600" y="40" width="40" height="40" as="geometry" />
        </mxCell>
        <mxCell id="rZgHtx4meNHUPGNzYNCi-54" style="edgeStyle=none;rounded=0;orthogonalLoop=1;jettySize=auto;html=1;exitX=1;exitY=0;exitDx=0;exitDy=0;entryX=0;entryY=1;entryDx=0;entryDy=0;endArrow=classic;endFill=1;" parent="1" source="rZgHtx4meNHUPGNzYNCi-55" target="rZgHtx4meNHUPGNzYNCi-57" edge="1">
          <mxGeometry relative="1" as="geometry" />
        </mxCell>
        <mxCell id="rZgHtx4meNHUPGNzYNCi-55" value="13" style="ellipse;whiteSpace=wrap;html=1;" parent="1" vertex="1">
          <mxGeometry x="600" y="200" width="40" height="40" as="geometry" />
        </mxCell>
        <mxCell id="rZgHtx4meNHUPGNzYNCi-56" style="edgeStyle=none;rounded=0;orthogonalLoop=1;jettySize=auto;html=1;exitX=0.5;exitY=0;exitDx=0;exitDy=0;entryX=0.5;entryY=0;entryDx=0;entryDy=0;endArrow=classic;endFill=1;" parent="1" source="rZgHtx4meNHUPGNzYNCi-57" target="rZgHtx4meNHUPGNzYNCi-45" edge="1">
          <mxGeometry relative="1" as="geometry">
            <Array as="points">
              <mxPoint x="700" y="20" />
              <mxPoint x="460" y="20" />
            </Array>
          </mxGeometry>
        </mxCell>
        <mxCell id="rZgHtx4meNHUPGNzYNCi-71" style="edgeStyle=none;rounded=0;orthogonalLoop=1;jettySize=auto;html=1;exitX=1;exitY=0.5;exitDx=0;exitDy=0;entryX=0;entryY=0.5;entryDx=0;entryDy=0;" parent="1" source="rZgHtx4meNHUPGNzYNCi-57" target="rZgHtx4meNHUPGNzYNCi-70" edge="1">
          <mxGeometry relative="1" as="geometry" />
        </mxCell>
        <mxCell id="rZgHtx4meNHUPGNzYNCi-57" value="14" style="ellipse;whiteSpace=wrap;html=1;" parent="1" vertex="1">
          <mxGeometry x="680" y="120" width="40" height="40" as="geometry" />
        </mxCell>
        <mxCell id="rZgHtx4meNHUPGNzYNCi-64" value="1" style="text;html=1;align=center;verticalAlign=middle;whiteSpace=wrap;rounded=0;" parent="1" vertex="1">
          <mxGeometry x="560" y="120" width="40" height="20" as="geometry" />
        </mxCell>
        <mxCell id="rZgHtx4meNHUPGNzYNCi-65" style="edgeStyle=none;rounded=0;orthogonalLoop=1;jettySize=auto;html=1;exitX=1;exitY=0.5;exitDx=0;exitDy=0;entryX=0;entryY=0.5;entryDx=0;entryDy=0;endArrow=classic;endFill=1;" parent="1" source="rZgHtx4meNHUPGNzYNCi-66" target="rZgHtx4meNHUPGNzYNCi-67" edge="1">
          <mxGeometry relative="1" as="geometry" />
        </mxCell>
        <mxCell id="rZgHtx4meNHUPGNzYNCi-66" value="10" style="ellipse;whiteSpace=wrap;html=1;" parent="1" vertex="1">
          <mxGeometry x="520" y="120" width="40" height="40" as="geometry" />
        </mxCell>
        <mxCell id="rZgHtx4meNHUPGNzYNCi-69" style="edgeStyle=none;rounded=0;orthogonalLoop=1;jettySize=auto;html=1;exitX=1;exitY=0.5;exitDx=0;exitDy=0;entryX=0;entryY=0.5;entryDx=0;entryDy=0;" parent="1" source="rZgHtx4meNHUPGNzYNCi-67" target="rZgHtx4meNHUPGNzYNCi-57" edge="1">
          <mxGeometry relative="1" as="geometry" />
        </mxCell>
        <mxCell id="rZgHtx4meNHUPGNzYNCi-67" value="11" style="ellipse;whiteSpace=wrap;html=1;" parent="1" vertex="1">
          <mxGeometry x="600" y="120" width="40" height="40" as="geometry" />
        </mxCell>
        <mxCell id="rZgHtx4meNHUPGNzYNCi-79" style="edgeStyle=none;rounded=0;orthogonalLoop=1;jettySize=auto;html=1;exitX=0.5;exitY=1;exitDx=0;exitDy=0;entryX=0.5;entryY=1;entryDx=0;entryDy=0;" parent="1" source="rZgHtx4meNHUPGNzYNCi-70" target="rZgHtx4meNHUPGNzYNCi-2" edge="1">
          <mxGeometry relative="1" as="geometry">
            <Array as="points">
              <mxPoint x="780" y="260" />
              <mxPoint x="140" y="260" />
            </Array>
          </mxGeometry>
        </mxCell>
        <mxCell id="rZgHtx4meNHUPGNzYNCi-80" style="edgeStyle=none;rounded=0;orthogonalLoop=1;jettySize=auto;html=1;exitX=1;exitY=0.5;exitDx=0;exitDy=0;entryX=0;entryY=0.5;entryDx=0;entryDy=0;" parent="1" source="rZgHtx4meNHUPGNzYNCi-70" target="rZgHtx4meNHUPGNzYNCi-76" edge="1">
          <mxGeometry relative="1" as="geometry" />
        </mxCell>
        <mxCell id="rZgHtx4meNHUPGNzYNCi-70" value="15" style="ellipse;whiteSpace=wrap;html=1;" parent="1" vertex="1">
          <mxGeometry x="760" y="120" width="40" height="40" as="geometry" />
        </mxCell>
        <mxCell id="rZgHtx4meNHUPGNzYNCi-72" value=";" style="text;html=1;align=center;verticalAlign=middle;whiteSpace=wrap;rounded=0;" parent="1" vertex="1">
          <mxGeometry x="720" y="120" width="40" height="20" as="geometry" />
        </mxCell>
        <mxCell id="rZgHtx4meNHUPGNzYNCi-76" value="" style="ellipse;whiteSpace=wrap;html=1;" parent="1" vertex="1">
          <mxGeometry x="840" y="120" width="40" height="40" as="geometry" />
        </mxCell>
        <mxCell id="rZgHtx4meNHUPGNzYNCi-81" value="}" style="text;html=1;align=center;verticalAlign=middle;whiteSpace=wrap;rounded=0;" parent="1" vertex="1">
          <mxGeometry x="800" y="120" width="40" height="20" as="geometry" />
        </mxCell>
        <mxCell id="rZgHtx4meNHUPGNzYNCi-82" value="{ . ((0|1)+ . : . (0|1|x)+ . ;)+ . }" style="text;html=1;align=center;verticalAlign=middle;whiteSpace=wrap;rounded=0;" parent="1" vertex="1">
          <mxGeometry x="40" y="10" width="170" height="30" as="geometry" />
        </mxCell>
        <mxCell id="rZgHtx4meNHUPGNzYNCi-83" value="cerradura(0) = {0} = A&lt;div&gt;mueve(A, {) = {1}&lt;span style=&quot;white-space: pre;&quot;&gt;&#x9;&lt;/span&gt;&lt;span style=&quot;white-space: pre;&quot;&gt;&#x9;&lt;/span&gt;&lt;span style=&quot;white-space: pre;&quot;&gt;&#x9;&lt;span style=&quot;white-space: pre;&quot;&gt;&#x9;&lt;/span&gt;&lt;/span&gt;&lt;span style=&quot;white-space: pre;&quot;&gt;&#x9;&lt;/span&gt;// B&lt;/div&gt;&lt;div&gt;cerradura({1}) = {2, 4} = B&lt;/div&gt;&lt;div&gt;mueve(B, 0) = {3}&lt;span style=&quot;white-space: pre;&quot;&gt;&#x9;&lt;/span&gt;&lt;span style=&quot;white-space: pre;&quot;&gt;&#x9;&lt;span style=&quot;white-space: pre;&quot;&gt;&#x9;&lt;/span&gt;&lt;/span&gt;&lt;span style=&quot;white-space: pre;&quot;&gt;&#x9;&lt;/span&gt;&lt;span style=&quot;white-space: pre;&quot;&gt;&#x9;&lt;/span&gt;// C&lt;/div&gt;&lt;div&gt;cerradura({3}) = {3, 6, 1, 2, 4} = C&lt;br&gt;&lt;/div&gt;&lt;div&gt;mueve(B, 1) = {5}&lt;span style=&quot;white-space: pre;&quot;&gt;&#x9;&lt;span style=&quot;white-space: pre;&quot;&gt;&#x9;&lt;/span&gt;&lt;/span&gt;&lt;span style=&quot;white-space: pre;&quot;&gt;&#x9;&lt;/span&gt;&lt;span style=&quot;white-space: pre;&quot;&gt;&#x9;&lt;/span&gt;&lt;span style=&quot;white-space: pre;&quot;&gt;&#x9;&lt;/span&gt;// D&lt;/div&gt;&lt;div&gt;cerradura({5}) = {5, 6, 1, 2, 4} = D&lt;/div&gt;&lt;div&gt;mueve(C, 0) = {3}&lt;span style=&quot;white-space: pre;&quot;&gt;&#x9;&lt;/span&gt;&lt;span style=&quot;white-space: pre;&quot;&gt;&#x9;&lt;span style=&quot;white-space: pre;&quot;&gt;&#x9;&lt;/span&gt;&lt;/span&gt;&lt;span style=&quot;white-space: pre;&quot;&gt;&#x9;&lt;/span&gt;&lt;span style=&quot;white-space: pre;&quot;&gt;&#x9;&lt;/span&gt;// C&lt;/div&gt;&lt;div&gt;mueve(C, 1) = {5}&lt;span style=&quot;white-space: pre;&quot;&gt;&#x9;&lt;span style=&quot;white-space: pre;&quot;&gt;&#x9;&lt;/span&gt;&lt;/span&gt;&lt;span style=&quot;white-space: pre;&quot;&gt;&#x9;&lt;/span&gt;&lt;span style=&quot;white-space: pre;&quot;&gt;&#x9;&lt;/span&gt;&lt;span style=&quot;white-space: pre;&quot;&gt;&#x9;&lt;/span&gt;// D&lt;br&gt;&lt;/div&gt;&lt;div&gt;mueve(C, :) = {7}&lt;span style=&quot;white-space: pre;&quot;&gt;&#x9;&lt;/span&gt;&lt;span style=&quot;white-space: pre;&quot;&gt;&#x9;&lt;/span&gt;&lt;span style=&quot;white-space: pre;&quot;&gt;&#x9;&lt;span style=&quot;white-space: pre;&quot;&gt;&#x9;&lt;/span&gt;&lt;/span&gt;&lt;span style=&quot;white-space: pre;&quot;&gt;&#x9;&lt;/span&gt;// E&lt;/div&gt;&lt;div&gt;&lt;div&gt;mueve(D, 0) = {3}&lt;span style=&quot;white-space: pre;&quot;&gt;&#x9;&lt;/span&gt;&lt;span style=&quot;white-space: pre;&quot;&gt;&#x9;&lt;span style=&quot;white-space: pre;&quot;&gt;&#x9;&lt;/span&gt;&lt;/span&gt;&lt;span style=&quot;white-space: pre;&quot;&gt;&#x9;&lt;/span&gt;&lt;span style=&quot;white-space: pre;&quot;&gt;&#x9;&lt;/span&gt;// C&lt;/div&gt;&lt;div&gt;mueve(D, 1) = {5}&lt;span style=&quot;white-space: pre;&quot;&gt;&#x9;&lt;span style=&quot;white-space: pre;&quot;&gt;&#x9;&lt;/span&gt;&lt;/span&gt;&lt;span style=&quot;white-space: pre;&quot;&gt;&#x9;&lt;/span&gt;&lt;span style=&quot;white-space: pre;&quot;&gt;&#x9;&lt;/span&gt;&lt;span style=&quot;white-space: pre;&quot;&gt;&#x9;&lt;/span&gt;// D&lt;br&gt;&lt;/div&gt;&lt;div&gt;mueve(D, :) = {7}&lt;span style=&quot;white-space: pre;&quot;&gt;&#x9;&lt;/span&gt;&lt;span style=&quot;white-space: pre;&quot;&gt;&#x9;&lt;/span&gt;&lt;span style=&quot;white-space: pre;&quot;&gt;&#x9;&lt;/span&gt;&lt;span style=&quot;white-space: pre;&quot;&gt;&#x9;&lt;/span&gt;&lt;span style=&quot;white-space: pre;&quot;&gt;&#x9;&lt;/span&gt;// E&lt;/div&gt;&lt;/div&gt;&lt;div&gt;cerradura({7}) = {7, 8, 10, 12} = E&lt;/div&gt;&lt;div&gt;mueve(E, 0) = {9}&lt;span style=&quot;white-space: pre;&quot;&gt;&#x9;&lt;/span&gt;&lt;span style=&quot;white-space: pre;&quot;&gt;&#x9;&lt;/span&gt;&lt;span style=&quot;white-space: pre;&quot;&gt;&#x9;&lt;/span&gt;&lt;span style=&quot;white-space: pre;&quot;&gt;&#x9;&lt;/span&gt;&lt;span style=&quot;white-space: pre;&quot;&gt;&#x9;&lt;/span&gt;&lt;span style=&quot;background-color: initial;&quot;&gt;// F&lt;/span&gt;&lt;/div&gt;&lt;div&gt;mueve(E, 1) = {11}&lt;span style=&quot;white-space: pre;&quot;&gt;&#x9;&lt;/span&gt;&lt;span style=&quot;white-space: pre;&quot;&gt;&#x9;&lt;/span&gt;&lt;span style=&quot;white-space: pre;&quot;&gt;&#x9;&lt;/span&gt;&lt;span style=&quot;white-space: pre;&quot;&gt;&#x9;&lt;/span&gt;&lt;span style=&quot;white-space: pre;&quot;&gt;&#x9;&lt;/span&gt;&lt;span style=&quot;background-color: initial;&quot;&gt;// G&lt;/span&gt;&lt;/div&gt;&lt;div&gt;mueve(E, x) = {13}&lt;span style=&quot;white-space: pre;&quot;&gt;&#x9;&lt;/span&gt;&lt;span style=&quot;white-space: pre;&quot;&gt;&#x9;&lt;/span&gt;&lt;span style=&quot;white-space: pre;&quot;&gt;&#x9;&lt;/span&gt;&lt;span style=&quot;white-space: pre;&quot;&gt;&#x9;&lt;/span&gt;&lt;span style=&quot;white-space: pre;&quot;&gt;&#x9;&lt;/span&gt;// H&lt;/div&gt;&lt;div&gt;cerradura({9}) = {9, 14, 7, 8, 10, 12} = F&lt;/div&gt;&lt;div&gt;cerradura({11}) = {11, 14, 7, 8, 10, 12} = G&lt;/div&gt;&lt;div&gt;cerradura({13}) = {13, 14, 7, 8, 10, 12} = H&lt;/div&gt;&lt;div&gt;mueve(F, 0) = {9}&lt;span style=&quot;white-space: pre;&quot;&gt;&#x9;&lt;/span&gt;&lt;span style=&quot;white-space: pre;&quot;&gt;&#x9;&lt;/span&gt;&lt;span style=&quot;white-space: pre;&quot;&gt;&#x9;&lt;/span&gt;&lt;span style=&quot;white-space: pre;&quot;&gt;&#x9;&lt;/span&gt;&lt;span style=&quot;white-space: pre;&quot;&gt;&#x9;&lt;/span&gt;// F&lt;/div&gt;&lt;div&gt;mueve(F, 1) = {11}&lt;span style=&quot;white-space: pre;&quot;&gt;&#x9;&lt;/span&gt;&lt;span style=&quot;white-space: pre;&quot;&gt;&#x9;&lt;/span&gt;&lt;span style=&quot;white-space: pre;&quot;&gt;&#x9;&lt;/span&gt;&lt;span style=&quot;white-space: pre;&quot;&gt;&#x9;&lt;/span&gt;&lt;span style=&quot;white-space: pre;&quot;&gt;&#x9;&lt;/span&gt;// G&lt;/div&gt;&lt;div&gt;mueve(F, x) = {13}&lt;span style=&quot;white-space: pre;&quot;&gt;&#x9;&lt;/span&gt;&lt;span style=&quot;white-space: pre;&quot;&gt;&#x9;&lt;/span&gt;&lt;span style=&quot;white-space: pre;&quot;&gt;&#x9;&lt;/span&gt;&lt;span style=&quot;white-space: pre;&quot;&gt;&#x9;&lt;/span&gt;&lt;span style=&quot;white-space: pre;&quot;&gt;&#x9;&lt;/span&gt;// H&lt;/div&gt;&lt;div&gt;mueve(F, ;) = {15}&lt;span style=&quot;white-space: pre;&quot;&gt;&#x9;&lt;/span&gt;&lt;span style=&quot;white-space: pre;&quot;&gt;&#x9;&lt;/span&gt;&lt;span style=&quot;white-space: pre;&quot;&gt;&#x9;&lt;/span&gt;&lt;span style=&quot;white-space: pre;&quot;&gt;&#x9;&lt;/span&gt;&lt;span style=&quot;white-space: pre;&quot;&gt;&#x9;&lt;/span&gt;// I&lt;br&gt;&lt;/div&gt;&lt;div&gt;&lt;div&gt;mueve(G, 0) = {9}&lt;span style=&quot;white-space: pre;&quot;&gt;&#x9;&lt;/span&gt;&lt;span style=&quot;white-space: pre;&quot;&gt;&#x9;&lt;/span&gt;&lt;span style=&quot;white-space: pre;&quot;&gt;&#x9;&lt;/span&gt;&lt;span style=&quot;white-space: pre;&quot;&gt;&#x9;&lt;/span&gt;&lt;span style=&quot;white-space: pre;&quot;&gt;&#x9;&lt;/span&gt;// F&lt;/div&gt;&lt;div&gt;mueve(G, 1) = {11}&lt;span style=&quot;white-space: pre;&quot;&gt;&#x9;&lt;/span&gt;&lt;span style=&quot;white-space: pre;&quot;&gt;&#x9;&lt;/span&gt;&lt;span style=&quot;white-space: pre;&quot;&gt;&#x9;&lt;/span&gt;&lt;span style=&quot;white-space: pre;&quot;&gt;&#x9;&lt;/span&gt;&lt;span style=&quot;white-space: pre;&quot;&gt;&#x9;&lt;/span&gt;// G&lt;/div&gt;&lt;div&gt;mueve(G, x) = {13}&lt;span style=&quot;white-space: pre;&quot;&gt;&#x9;&lt;/span&gt;&lt;span style=&quot;white-space: pre;&quot;&gt;&#x9;&lt;/span&gt;&lt;span style=&quot;white-space: pre;&quot;&gt;&#x9;&lt;/span&gt;&lt;span style=&quot;white-space: pre;&quot;&gt;&#x9;&lt;/span&gt;&lt;span style=&quot;white-space: pre;&quot;&gt;&#x9;&lt;/span&gt;// H&lt;/div&gt;&lt;/div&gt;&lt;div&gt;mueve(G, ;) = {15}&lt;span style=&quot;white-space: pre;&quot;&gt;&#x9;&lt;/span&gt;&lt;span style=&quot;white-space: pre;&quot;&gt;&#x9;&lt;/span&gt;&lt;span style=&quot;white-space: pre;&quot;&gt;&#x9;&lt;/span&gt;&lt;span style=&quot;white-space: pre;&quot;&gt;&#x9;&lt;/span&gt;&lt;span style=&quot;white-space: pre;&quot;&gt;&#x9;&lt;/span&gt;// I&lt;br&gt;&lt;/div&gt;&lt;div&gt;&lt;div&gt;mueve(H, 0) = {9}&lt;span style=&quot;white-space: pre;&quot;&gt;&#x9;&lt;/span&gt;&lt;span style=&quot;white-space: pre;&quot;&gt;&#x9;&lt;/span&gt;&lt;span style=&quot;white-space: pre;&quot;&gt;&#x9;&lt;/span&gt;&lt;span style=&quot;white-space: pre;&quot;&gt;&#x9;&lt;/span&gt;&lt;span style=&quot;white-space: pre;&quot;&gt;&#x9;&lt;/span&gt;// F&lt;/div&gt;&lt;div&gt;mueve(H, 1) = {11}&lt;span style=&quot;white-space: pre;&quot;&gt;&#x9;&lt;/span&gt;&lt;span style=&quot;white-space: pre;&quot;&gt;&#x9;&lt;/span&gt;&lt;span style=&quot;white-space: pre;&quot;&gt;&#x9;&lt;/span&gt;&lt;span style=&quot;white-space: pre;&quot;&gt;&#x9;&lt;/span&gt;&lt;span style=&quot;white-space: pre;&quot;&gt;&#x9;&lt;/span&gt;// G&lt;/div&gt;&lt;div&gt;mueve(H, x) = {13}&lt;span style=&quot;white-space: pre;&quot;&gt;&#x9;&lt;/span&gt;&lt;span style=&quot;white-space: pre;&quot;&gt;&#x9;&lt;/span&gt;&lt;span style=&quot;white-space: pre;&quot;&gt;&#x9;&lt;/span&gt;&lt;span style=&quot;white-space: pre;&quot;&gt;&#x9;&lt;/span&gt;&lt;span style=&quot;white-space: pre;&quot;&gt;&#x9;&lt;/span&gt;// H&lt;/div&gt;&lt;/div&gt;&lt;div&gt;mueve(H, ;) = {15}&lt;span style=&quot;white-space: pre;&quot;&gt;&#x9;&lt;/span&gt;&lt;span style=&quot;white-space: pre;&quot;&gt;&#x9;&lt;/span&gt;&lt;span style=&quot;white-space: pre;&quot;&gt;&#x9;&lt;/span&gt;&lt;span style=&quot;white-space: pre;&quot;&gt;&#x9;&lt;/span&gt;&lt;span style=&quot;white-space: pre;&quot;&gt;&#x9;&lt;/span&gt;// I&lt;br&gt;&lt;/div&gt;&lt;div&gt;cerradura({15}) = {15, 1, 2, 4} = I&lt;/div&gt;&lt;div&gt;mueve(I, 0) = {3}&lt;span style=&quot;white-space: pre;&quot;&gt;&#x9;&lt;/span&gt;&lt;span style=&quot;white-space: pre;&quot;&gt;&#x9;&lt;/span&gt;&lt;span style=&quot;white-space: pre;&quot;&gt;&#x9;&lt;/span&gt;&lt;span style=&quot;white-space: pre;&quot;&gt;&#x9;&lt;/span&gt;&lt;span style=&quot;white-space: pre;&quot;&gt;&#x9;&lt;/span&gt;// C&lt;/div&gt;&lt;div&gt;mueve(I, 1) = {5}&lt;span style=&quot;white-space: pre;&quot;&gt;&#x9;&lt;/span&gt;&lt;span style=&quot;white-space: pre;&quot;&gt;&#x9;&lt;/span&gt;&lt;span style=&quot;white-space: pre;&quot;&gt;&#x9;&lt;/span&gt;&lt;span style=&quot;white-space: pre;&quot;&gt;&#x9;&lt;/span&gt;&lt;span style=&quot;white-space: pre;&quot;&gt;&#x9;&lt;/span&gt;// D&lt;/div&gt;&lt;div&gt;mueve(I, }) = {16}&lt;span style=&quot;white-space: pre;&quot;&gt;&#x9;&lt;/span&gt;&lt;span style=&quot;white-space: pre;&quot;&gt;&#x9;&lt;/span&gt;&lt;span style=&quot;white-space: pre;&quot;&gt;&#x9;&lt;/span&gt;&lt;span style=&quot;white-space: pre;&quot;&gt;&#x9;&lt;/span&gt;&lt;span style=&quot;white-space: pre;&quot;&gt;&#x9;&lt;/span&gt;// J&lt;br&gt;&lt;/div&gt;&lt;div&gt;cerradura({16}) = {}&lt;/div&gt;&lt;div&gt;&lt;br&gt;&lt;/div&gt;&lt;div&gt;&lt;br&gt;&lt;/div&gt;&lt;div&gt;&lt;br&gt;&lt;/div&gt;&lt;div&gt;&lt;br&gt;&lt;/div&gt;&lt;div&gt;&lt;br&gt;&lt;/div&gt;" style="text;html=1;align=left;verticalAlign=top;whiteSpace=wrap;rounded=0;" parent="1" vertex="1">
          <mxGeometry y="280" width="240" height="550" as="geometry" />
        </mxCell>
        <mxCell id="rZgHtx4meNHUPGNzYNCi-87" value="16" style="ellipse;whiteSpace=wrap;html=1;" parent="1" vertex="1">
          <mxGeometry x="845" y="125" width="30" height="30" as="geometry" />
        </mxCell>
        <mxCell id="rZgHtx4meNHUPGNzYNCi-115" value="" style="rounded=0;whiteSpace=wrap;html=1;" parent="1" vertex="1">
          <mxGeometry x="280" y="320" width="40" height="20" as="geometry" />
        </mxCell>
        <mxCell id="rZgHtx4meNHUPGNzYNCi-116" value="A" style="rounded=0;whiteSpace=wrap;html=1;" parent="1" vertex="1">
          <mxGeometry x="280" y="340" width="40" height="20" as="geometry" />
        </mxCell>
        <mxCell id="rZgHtx4meNHUPGNzYNCi-117" value="B" style="rounded=0;whiteSpace=wrap;html=1;" parent="1" vertex="1">
          <mxGeometry x="280" y="360" width="40" height="20" as="geometry" />
        </mxCell>
        <mxCell id="rZgHtx4meNHUPGNzYNCi-118" value="C" style="rounded=0;whiteSpace=wrap;html=1;" parent="1" vertex="1">
          <mxGeometry x="280" y="380" width="40" height="20" as="geometry" />
        </mxCell>
        <mxCell id="rZgHtx4meNHUPGNzYNCi-119" value="D" style="rounded=0;whiteSpace=wrap;html=1;" parent="1" vertex="1">
          <mxGeometry x="280" y="400" width="40" height="20" as="geometry" />
        </mxCell>
        <mxCell id="rZgHtx4meNHUPGNzYNCi-120" value="E" style="rounded=0;whiteSpace=wrap;html=1;" parent="1" vertex="1">
          <mxGeometry x="280" y="420" width="40" height="20" as="geometry" />
        </mxCell>
        <mxCell id="rZgHtx4meNHUPGNzYNCi-121" value="F" style="rounded=0;whiteSpace=wrap;html=1;" parent="1" vertex="1">
          <mxGeometry x="280" y="440" width="40" height="20" as="geometry" />
        </mxCell>
        <mxCell id="rZgHtx4meNHUPGNzYNCi-122" value="G" style="rounded=0;whiteSpace=wrap;html=1;" parent="1" vertex="1">
          <mxGeometry x="280" y="460" width="40" height="20" as="geometry" />
        </mxCell>
        <mxCell id="rZgHtx4meNHUPGNzYNCi-123" value="H" style="rounded=0;whiteSpace=wrap;html=1;" parent="1" vertex="1">
          <mxGeometry x="280" y="480" width="40" height="20" as="geometry" />
        </mxCell>
        <mxCell id="rZgHtx4meNHUPGNzYNCi-124" value="I" style="rounded=0;whiteSpace=wrap;html=1;" parent="1" vertex="1">
          <mxGeometry x="280" y="500" width="40" height="20" as="geometry" />
        </mxCell>
        <mxCell id="rZgHtx4meNHUPGNzYNCi-125" value="J" style="rounded=0;whiteSpace=wrap;html=1;" parent="1" vertex="1">
          <mxGeometry x="280" y="520" width="40" height="20" as="geometry" />
        </mxCell>
        <mxCell id="rZgHtx4meNHUPGNzYNCi-126" value="{" style="rounded=0;whiteSpace=wrap;html=1;" parent="1" vertex="1">
          <mxGeometry x="320" y="320" width="40" height="20" as="geometry" />
        </mxCell>
        <mxCell id="rZgHtx4meNHUPGNzYNCi-127" value="B" style="rounded=0;whiteSpace=wrap;html=1;" parent="1" vertex="1">
          <mxGeometry x="320" y="340" width="40" height="20" as="geometry" />
        </mxCell>
        <mxCell id="rZgHtx4meNHUPGNzYNCi-128" value="" style="rounded=0;whiteSpace=wrap;html=1;" parent="1" vertex="1">
          <mxGeometry x="320" y="360" width="40" height="20" as="geometry" />
        </mxCell>
        <mxCell id="rZgHtx4meNHUPGNzYNCi-129" value="" style="rounded=0;whiteSpace=wrap;html=1;" parent="1" vertex="1">
          <mxGeometry x="320" y="380" width="40" height="20" as="geometry" />
        </mxCell>
        <mxCell id="rZgHtx4meNHUPGNzYNCi-130" value="" style="rounded=0;whiteSpace=wrap;html=1;" parent="1" vertex="1">
          <mxGeometry x="320" y="400" width="40" height="20" as="geometry" />
        </mxCell>
        <mxCell id="rZgHtx4meNHUPGNzYNCi-131" value="" style="rounded=0;whiteSpace=wrap;html=1;" parent="1" vertex="1">
          <mxGeometry x="320" y="420" width="40" height="20" as="geometry" />
        </mxCell>
        <mxCell id="rZgHtx4meNHUPGNzYNCi-132" value="" style="rounded=0;whiteSpace=wrap;html=1;" parent="1" vertex="1">
          <mxGeometry x="320" y="440" width="40" height="20" as="geometry" />
        </mxCell>
        <mxCell id="rZgHtx4meNHUPGNzYNCi-133" value="" style="rounded=0;whiteSpace=wrap;html=1;" parent="1" vertex="1">
          <mxGeometry x="320" y="460" width="40" height="20" as="geometry" />
        </mxCell>
        <mxCell id="rZgHtx4meNHUPGNzYNCi-134" value="" style="rounded=0;whiteSpace=wrap;html=1;" parent="1" vertex="1">
          <mxGeometry x="320" y="480" width="40" height="20" as="geometry" />
        </mxCell>
        <mxCell id="rZgHtx4meNHUPGNzYNCi-135" value="" style="rounded=0;whiteSpace=wrap;html=1;" parent="1" vertex="1">
          <mxGeometry x="320" y="500" width="40" height="20" as="geometry" />
        </mxCell>
        <mxCell id="rZgHtx4meNHUPGNzYNCi-136" value="" style="rounded=0;whiteSpace=wrap;html=1;" parent="1" vertex="1">
          <mxGeometry x="320" y="520" width="40" height="20" as="geometry" />
        </mxCell>
        <mxCell id="rZgHtx4meNHUPGNzYNCi-137" value="0" style="rounded=0;whiteSpace=wrap;html=1;" parent="1" vertex="1">
          <mxGeometry x="360" y="320" width="40" height="20" as="geometry" />
        </mxCell>
        <mxCell id="rZgHtx4meNHUPGNzYNCi-138" value="" style="rounded=0;whiteSpace=wrap;html=1;" parent="1" vertex="1">
          <mxGeometry x="360" y="340" width="40" height="20" as="geometry" />
        </mxCell>
        <mxCell id="rZgHtx4meNHUPGNzYNCi-139" value="C" style="rounded=0;whiteSpace=wrap;html=1;" parent="1" vertex="1">
          <mxGeometry x="360" y="360" width="40" height="20" as="geometry" />
        </mxCell>
        <mxCell id="rZgHtx4meNHUPGNzYNCi-140" value="C" style="rounded=0;whiteSpace=wrap;html=1;" parent="1" vertex="1">
          <mxGeometry x="360" y="380" width="40" height="20" as="geometry" />
        </mxCell>
        <mxCell id="rZgHtx4meNHUPGNzYNCi-141" value="C" style="rounded=0;whiteSpace=wrap;html=1;" parent="1" vertex="1">
          <mxGeometry x="360" y="400" width="40" height="20" as="geometry" />
        </mxCell>
        <mxCell id="rZgHtx4meNHUPGNzYNCi-142" value="F" style="rounded=0;whiteSpace=wrap;html=1;" parent="1" vertex="1">
          <mxGeometry x="360" y="420" width="40" height="20" as="geometry" />
        </mxCell>
        <mxCell id="rZgHtx4meNHUPGNzYNCi-143" value="F" style="rounded=0;whiteSpace=wrap;html=1;" parent="1" vertex="1">
          <mxGeometry x="360" y="440" width="40" height="20" as="geometry" />
        </mxCell>
        <mxCell id="rZgHtx4meNHUPGNzYNCi-144" value="F" style="rounded=0;whiteSpace=wrap;html=1;" parent="1" vertex="1">
          <mxGeometry x="360" y="460" width="40" height="20" as="geometry" />
        </mxCell>
        <mxCell id="rZgHtx4meNHUPGNzYNCi-145" value="F" style="rounded=0;whiteSpace=wrap;html=1;" parent="1" vertex="1">
          <mxGeometry x="360" y="480" width="40" height="20" as="geometry" />
        </mxCell>
        <mxCell id="rZgHtx4meNHUPGNzYNCi-146" value="C" style="rounded=0;whiteSpace=wrap;html=1;" parent="1" vertex="1">
          <mxGeometry x="360" y="500" width="40" height="20" as="geometry" />
        </mxCell>
        <mxCell id="rZgHtx4meNHUPGNzYNCi-147" value="" style="rounded=0;whiteSpace=wrap;html=1;" parent="1" vertex="1">
          <mxGeometry x="360" y="520" width="40" height="20" as="geometry" />
        </mxCell>
        <mxCell id="rZgHtx4meNHUPGNzYNCi-148" value="1" style="rounded=0;whiteSpace=wrap;html=1;" parent="1" vertex="1">
          <mxGeometry x="400" y="320" width="40" height="20" as="geometry" />
        </mxCell>
        <mxCell id="rZgHtx4meNHUPGNzYNCi-149" value="" style="rounded=0;whiteSpace=wrap;html=1;" parent="1" vertex="1">
          <mxGeometry x="400" y="340" width="40" height="20" as="geometry" />
        </mxCell>
        <mxCell id="rZgHtx4meNHUPGNzYNCi-150" value="D" style="rounded=0;whiteSpace=wrap;html=1;" parent="1" vertex="1">
          <mxGeometry x="400" y="360" width="40" height="20" as="geometry" />
        </mxCell>
        <mxCell id="rZgHtx4meNHUPGNzYNCi-151" value="D" style="rounded=0;whiteSpace=wrap;html=1;" parent="1" vertex="1">
          <mxGeometry x="400" y="380" width="40" height="20" as="geometry" />
        </mxCell>
        <mxCell id="rZgHtx4meNHUPGNzYNCi-152" value="D" style="rounded=0;whiteSpace=wrap;html=1;" parent="1" vertex="1">
          <mxGeometry x="400" y="400" width="40" height="20" as="geometry" />
        </mxCell>
        <mxCell id="rZgHtx4meNHUPGNzYNCi-153" value="G" style="rounded=0;whiteSpace=wrap;html=1;" parent="1" vertex="1">
          <mxGeometry x="400" y="420" width="40" height="20" as="geometry" />
        </mxCell>
        <mxCell id="rZgHtx4meNHUPGNzYNCi-154" value="G" style="rounded=0;whiteSpace=wrap;html=1;" parent="1" vertex="1">
          <mxGeometry x="400" y="440" width="40" height="20" as="geometry" />
        </mxCell>
        <mxCell id="rZgHtx4meNHUPGNzYNCi-155" value="G" style="rounded=0;whiteSpace=wrap;html=1;" parent="1" vertex="1">
          <mxGeometry x="400" y="460" width="40" height="20" as="geometry" />
        </mxCell>
        <mxCell id="rZgHtx4meNHUPGNzYNCi-156" value="G" style="rounded=0;whiteSpace=wrap;html=1;" parent="1" vertex="1">
          <mxGeometry x="400" y="480" width="40" height="20" as="geometry" />
        </mxCell>
        <mxCell id="rZgHtx4meNHUPGNzYNCi-157" value="D" style="rounded=0;whiteSpace=wrap;html=1;" parent="1" vertex="1">
          <mxGeometry x="400" y="500" width="40" height="20" as="geometry" />
        </mxCell>
        <mxCell id="rZgHtx4meNHUPGNzYNCi-158" value="" style="rounded=0;whiteSpace=wrap;html=1;" parent="1" vertex="1">
          <mxGeometry x="400" y="520" width="40" height="20" as="geometry" />
        </mxCell>
        <mxCell id="rZgHtx4meNHUPGNzYNCi-159" value=":" style="rounded=0;whiteSpace=wrap;html=1;" parent="1" vertex="1">
          <mxGeometry x="440" y="320" width="40" height="20" as="geometry" />
        </mxCell>
        <mxCell id="rZgHtx4meNHUPGNzYNCi-160" value="" style="rounded=0;whiteSpace=wrap;html=1;" parent="1" vertex="1">
          <mxGeometry x="440" y="340" width="40" height="20" as="geometry" />
        </mxCell>
        <mxCell id="rZgHtx4meNHUPGNzYNCi-161" value="" style="rounded=0;whiteSpace=wrap;html=1;" parent="1" vertex="1">
          <mxGeometry x="440" y="360" width="40" height="20" as="geometry" />
        </mxCell>
        <mxCell id="rZgHtx4meNHUPGNzYNCi-162" value="E" style="rounded=0;whiteSpace=wrap;html=1;" parent="1" vertex="1">
          <mxGeometry x="440" y="380" width="40" height="20" as="geometry" />
        </mxCell>
        <mxCell id="rZgHtx4meNHUPGNzYNCi-163" value="E" style="rounded=0;whiteSpace=wrap;html=1;" parent="1" vertex="1">
          <mxGeometry x="440" y="400" width="40" height="20" as="geometry" />
        </mxCell>
        <mxCell id="rZgHtx4meNHUPGNzYNCi-164" value="" style="rounded=0;whiteSpace=wrap;html=1;" parent="1" vertex="1">
          <mxGeometry x="440" y="420" width="40" height="20" as="geometry" />
        </mxCell>
        <mxCell id="rZgHtx4meNHUPGNzYNCi-165" value="" style="rounded=0;whiteSpace=wrap;html=1;" parent="1" vertex="1">
          <mxGeometry x="440" y="440" width="40" height="20" as="geometry" />
        </mxCell>
        <mxCell id="rZgHtx4meNHUPGNzYNCi-166" value="" style="rounded=0;whiteSpace=wrap;html=1;" parent="1" vertex="1">
          <mxGeometry x="440" y="460" width="40" height="20" as="geometry" />
        </mxCell>
        <mxCell id="rZgHtx4meNHUPGNzYNCi-167" value="" style="rounded=0;whiteSpace=wrap;html=1;" parent="1" vertex="1">
          <mxGeometry x="440" y="480" width="40" height="20" as="geometry" />
        </mxCell>
        <mxCell id="rZgHtx4meNHUPGNzYNCi-168" value="" style="rounded=0;whiteSpace=wrap;html=1;" parent="1" vertex="1">
          <mxGeometry x="440" y="500" width="40" height="20" as="geometry" />
        </mxCell>
        <mxCell id="rZgHtx4meNHUPGNzYNCi-169" value="" style="rounded=0;whiteSpace=wrap;html=1;" parent="1" vertex="1">
          <mxGeometry x="440" y="520" width="40" height="20" as="geometry" />
        </mxCell>
        <mxCell id="rZgHtx4meNHUPGNzYNCi-170" value="x" style="rounded=0;whiteSpace=wrap;html=1;" parent="1" vertex="1">
          <mxGeometry x="480" y="320" width="40" height="20" as="geometry" />
        </mxCell>
        <mxCell id="rZgHtx4meNHUPGNzYNCi-171" value="" style="rounded=0;whiteSpace=wrap;html=1;" parent="1" vertex="1">
          <mxGeometry x="480" y="340" width="40" height="20" as="geometry" />
        </mxCell>
        <mxCell id="rZgHtx4meNHUPGNzYNCi-172" value="" style="rounded=0;whiteSpace=wrap;html=1;" parent="1" vertex="1">
          <mxGeometry x="480" y="360" width="40" height="20" as="geometry" />
        </mxCell>
        <mxCell id="rZgHtx4meNHUPGNzYNCi-173" value="" style="rounded=0;whiteSpace=wrap;html=1;" parent="1" vertex="1">
          <mxGeometry x="480" y="380" width="40" height="20" as="geometry" />
        </mxCell>
        <mxCell id="rZgHtx4meNHUPGNzYNCi-174" value="" style="rounded=0;whiteSpace=wrap;html=1;" parent="1" vertex="1">
          <mxGeometry x="480" y="400" width="40" height="20" as="geometry" />
        </mxCell>
        <mxCell id="rZgHtx4meNHUPGNzYNCi-175" value="H" style="rounded=0;whiteSpace=wrap;html=1;" parent="1" vertex="1">
          <mxGeometry x="480" y="420" width="40" height="20" as="geometry" />
        </mxCell>
        <mxCell id="rZgHtx4meNHUPGNzYNCi-176" value="H" style="rounded=0;whiteSpace=wrap;html=1;" parent="1" vertex="1">
          <mxGeometry x="480" y="440" width="40" height="20" as="geometry" />
        </mxCell>
        <mxCell id="rZgHtx4meNHUPGNzYNCi-177" value="H" style="rounded=0;whiteSpace=wrap;html=1;" parent="1" vertex="1">
          <mxGeometry x="480" y="460" width="40" height="20" as="geometry" />
        </mxCell>
        <mxCell id="rZgHtx4meNHUPGNzYNCi-178" value="H" style="rounded=0;whiteSpace=wrap;html=1;" parent="1" vertex="1">
          <mxGeometry x="480" y="480" width="40" height="20" as="geometry" />
        </mxCell>
        <mxCell id="rZgHtx4meNHUPGNzYNCi-179" value="" style="rounded=0;whiteSpace=wrap;html=1;" parent="1" vertex="1">
          <mxGeometry x="480" y="500" width="40" height="20" as="geometry" />
        </mxCell>
        <mxCell id="rZgHtx4meNHUPGNzYNCi-180" value="" style="rounded=0;whiteSpace=wrap;html=1;" parent="1" vertex="1">
          <mxGeometry x="480" y="520" width="40" height="20" as="geometry" />
        </mxCell>
        <mxCell id="rZgHtx4meNHUPGNzYNCi-193" value=";" style="rounded=0;whiteSpace=wrap;html=1;" parent="1" vertex="1">
          <mxGeometry x="520" y="320" width="40" height="20" as="geometry" />
        </mxCell>
        <mxCell id="rZgHtx4meNHUPGNzYNCi-194" value="" style="rounded=0;whiteSpace=wrap;html=1;" parent="1" vertex="1">
          <mxGeometry x="520" y="340" width="40" height="20" as="geometry" />
        </mxCell>
        <mxCell id="rZgHtx4meNHUPGNzYNCi-195" value="" style="rounded=0;whiteSpace=wrap;html=1;" parent="1" vertex="1">
          <mxGeometry x="520" y="360" width="40" height="20" as="geometry" />
        </mxCell>
        <mxCell id="rZgHtx4meNHUPGNzYNCi-196" value="" style="rounded=0;whiteSpace=wrap;html=1;" parent="1" vertex="1">
          <mxGeometry x="520" y="380" width="40" height="20" as="geometry" />
        </mxCell>
        <mxCell id="rZgHtx4meNHUPGNzYNCi-197" value="" style="rounded=0;whiteSpace=wrap;html=1;" parent="1" vertex="1">
          <mxGeometry x="520" y="400" width="40" height="20" as="geometry" />
        </mxCell>
        <mxCell id="rZgHtx4meNHUPGNzYNCi-198" value="" style="rounded=0;whiteSpace=wrap;html=1;" parent="1" vertex="1">
          <mxGeometry x="520" y="420" width="40" height="20" as="geometry" />
        </mxCell>
        <mxCell id="rZgHtx4meNHUPGNzYNCi-199" value="I" style="rounded=0;whiteSpace=wrap;html=1;" parent="1" vertex="1">
          <mxGeometry x="520" y="440" width="40" height="20" as="geometry" />
        </mxCell>
        <mxCell id="rZgHtx4meNHUPGNzYNCi-200" value="I" style="rounded=0;whiteSpace=wrap;html=1;" parent="1" vertex="1">
          <mxGeometry x="520" y="460" width="40" height="20" as="geometry" />
        </mxCell>
        <mxCell id="rZgHtx4meNHUPGNzYNCi-201" value="I" style="rounded=0;whiteSpace=wrap;html=1;" parent="1" vertex="1">
          <mxGeometry x="520" y="480" width="40" height="20" as="geometry" />
        </mxCell>
        <mxCell id="rZgHtx4meNHUPGNzYNCi-202" value="" style="rounded=0;whiteSpace=wrap;html=1;" parent="1" vertex="1">
          <mxGeometry x="520" y="500" width="40" height="20" as="geometry" />
        </mxCell>
        <mxCell id="rZgHtx4meNHUPGNzYNCi-203" value="" style="rounded=0;whiteSpace=wrap;html=1;" parent="1" vertex="1">
          <mxGeometry x="520" y="520" width="40" height="20" as="geometry" />
        </mxCell>
        <mxCell id="rZgHtx4meNHUPGNzYNCi-204" value="}" style="rounded=0;whiteSpace=wrap;html=1;" parent="1" vertex="1">
          <mxGeometry x="560" y="320" width="40" height="20" as="geometry" />
        </mxCell>
        <mxCell id="rZgHtx4meNHUPGNzYNCi-205" value="" style="rounded=0;whiteSpace=wrap;html=1;" parent="1" vertex="1">
          <mxGeometry x="560" y="340" width="40" height="20" as="geometry" />
        </mxCell>
        <mxCell id="rZgHtx4meNHUPGNzYNCi-206" value="" style="rounded=0;whiteSpace=wrap;html=1;" parent="1" vertex="1">
          <mxGeometry x="560" y="360" width="40" height="20" as="geometry" />
        </mxCell>
        <mxCell id="rZgHtx4meNHUPGNzYNCi-207" value="" style="rounded=0;whiteSpace=wrap;html=1;" parent="1" vertex="1">
          <mxGeometry x="560" y="380" width="40" height="20" as="geometry" />
        </mxCell>
        <mxCell id="rZgHtx4meNHUPGNzYNCi-208" value="" style="rounded=0;whiteSpace=wrap;html=1;" parent="1" vertex="1">
          <mxGeometry x="560" y="400" width="40" height="20" as="geometry" />
        </mxCell>
        <mxCell id="rZgHtx4meNHUPGNzYNCi-209" value="" style="rounded=0;whiteSpace=wrap;html=1;" parent="1" vertex="1">
          <mxGeometry x="560" y="420" width="40" height="20" as="geometry" />
        </mxCell>
        <mxCell id="rZgHtx4meNHUPGNzYNCi-210" value="" style="rounded=0;whiteSpace=wrap;html=1;" parent="1" vertex="1">
          <mxGeometry x="560" y="440" width="40" height="20" as="geometry" />
        </mxCell>
        <mxCell id="rZgHtx4meNHUPGNzYNCi-211" value="" style="rounded=0;whiteSpace=wrap;html=1;" parent="1" vertex="1">
          <mxGeometry x="560" y="460" width="40" height="20" as="geometry" />
        </mxCell>
        <mxCell id="rZgHtx4meNHUPGNzYNCi-212" value="" style="rounded=0;whiteSpace=wrap;html=1;" parent="1" vertex="1">
          <mxGeometry x="560" y="480" width="40" height="20" as="geometry" />
        </mxCell>
        <mxCell id="rZgHtx4meNHUPGNzYNCi-213" value="J" style="rounded=0;whiteSpace=wrap;html=1;" parent="1" vertex="1">
          <mxGeometry x="560" y="500" width="40" height="20" as="geometry" />
        </mxCell>
        <mxCell id="rZgHtx4meNHUPGNzYNCi-214" value="" style="rounded=0;whiteSpace=wrap;html=1;" parent="1" vertex="1">
          <mxGeometry x="560" y="520" width="40" height="20" as="geometry" />
        </mxCell>
        <mxCell id="rZgHtx4meNHUPGNzYNCi-215" value="J" style="ellipse;whiteSpace=wrap;html=1;" parent="1" vertex="1">
          <mxGeometry x="290" y="520" width="20" height="20" as="geometry" />
        </mxCell>
        <mxCell id="rZgHtx4meNHUPGNzYNCi-216" value="J" style="ellipse;whiteSpace=wrap;html=1;" parent="1" vertex="1">
          <mxGeometry x="570" y="500" width="20" height="20" as="geometry" />
        </mxCell>
        <mxCell id="rZgHtx4meNHUPGNzYNCi-217" value="" style="rounded=0;whiteSpace=wrap;html=1;" parent="1" vertex="1">
          <mxGeometry x="280" y="600" width="40" height="20" as="geometry" />
        </mxCell>
        <mxCell id="rZgHtx4meNHUPGNzYNCi-218" value="A" style="rounded=0;whiteSpace=wrap;html=1;" parent="1" vertex="1">
          <mxGeometry x="280" y="620" width="40" height="20" as="geometry" />
        </mxCell>
        <mxCell id="rZgHtx4meNHUPGNzYNCi-219" value="B" style="rounded=0;whiteSpace=wrap;html=1;" parent="1" vertex="1">
          <mxGeometry x="280" y="640" width="40" height="20" as="geometry" />
        </mxCell>
        <mxCell id="rZgHtx4meNHUPGNzYNCi-220" value="C" style="rounded=0;whiteSpace=wrap;html=1;" parent="1" vertex="1">
          <mxGeometry x="280" y="660" width="40" height="20" as="geometry" />
        </mxCell>
        <mxCell id="rZgHtx4meNHUPGNzYNCi-222" value="E" style="rounded=0;whiteSpace=wrap;html=1;" parent="1" vertex="1">
          <mxGeometry x="280" y="680" width="40" height="20" as="geometry" />
        </mxCell>
        <mxCell id="rZgHtx4meNHUPGNzYNCi-223" value="F" style="rounded=0;whiteSpace=wrap;html=1;" parent="1" vertex="1">
          <mxGeometry x="280" y="700" width="40" height="20" as="geometry" />
        </mxCell>
        <mxCell id="rZgHtx4meNHUPGNzYNCi-226" value="I" style="rounded=0;whiteSpace=wrap;html=1;" parent="1" vertex="1">
          <mxGeometry x="280" y="720" width="40" height="20" as="geometry" />
        </mxCell>
        <mxCell id="rZgHtx4meNHUPGNzYNCi-227" value="J" style="rounded=0;whiteSpace=wrap;html=1;" parent="1" vertex="1">
          <mxGeometry x="280" y="740" width="40" height="20" as="geometry" />
        </mxCell>
        <mxCell id="rZgHtx4meNHUPGNzYNCi-228" value="{" style="rounded=0;whiteSpace=wrap;html=1;" parent="1" vertex="1">
          <mxGeometry x="320" y="600" width="40" height="20" as="geometry" />
        </mxCell>
        <mxCell id="rZgHtx4meNHUPGNzYNCi-229" value="B" style="rounded=0;whiteSpace=wrap;html=1;" parent="1" vertex="1">
          <mxGeometry x="320" y="620" width="40" height="20" as="geometry" />
        </mxCell>
        <mxCell id="rZgHtx4meNHUPGNzYNCi-230" value="" style="rounded=0;whiteSpace=wrap;html=1;" parent="1" vertex="1">
          <mxGeometry x="320" y="640" width="40" height="20" as="geometry" />
        </mxCell>
        <mxCell id="rZgHtx4meNHUPGNzYNCi-231" value="" style="rounded=0;whiteSpace=wrap;html=1;" parent="1" vertex="1">
          <mxGeometry x="320" y="660" width="40" height="20" as="geometry" />
        </mxCell>
        <mxCell id="rZgHtx4meNHUPGNzYNCi-233" value="" style="rounded=0;whiteSpace=wrap;html=1;" parent="1" vertex="1">
          <mxGeometry x="320" y="680" width="40" height="20" as="geometry" />
        </mxCell>
        <mxCell id="rZgHtx4meNHUPGNzYNCi-234" value="" style="rounded=0;whiteSpace=wrap;html=1;" parent="1" vertex="1">
          <mxGeometry x="320" y="700" width="40" height="20" as="geometry" />
        </mxCell>
        <mxCell id="rZgHtx4meNHUPGNzYNCi-237" value="" style="rounded=0;whiteSpace=wrap;html=1;" parent="1" vertex="1">
          <mxGeometry x="320" y="720" width="40" height="20" as="geometry" />
        </mxCell>
        <mxCell id="rZgHtx4meNHUPGNzYNCi-238" value="" style="rounded=0;whiteSpace=wrap;html=1;" parent="1" vertex="1">
          <mxGeometry x="320" y="740" width="40" height="20" as="geometry" />
        </mxCell>
        <mxCell id="rZgHtx4meNHUPGNzYNCi-239" value="0" style="rounded=0;whiteSpace=wrap;html=1;" parent="1" vertex="1">
          <mxGeometry x="360" y="600" width="40" height="20" as="geometry" />
        </mxCell>
        <mxCell id="rZgHtx4meNHUPGNzYNCi-240" value="" style="rounded=0;whiteSpace=wrap;html=1;" parent="1" vertex="1">
          <mxGeometry x="360" y="620" width="40" height="20" as="geometry" />
        </mxCell>
        <mxCell id="rZgHtx4meNHUPGNzYNCi-241" value="C" style="rounded=0;whiteSpace=wrap;html=1;" parent="1" vertex="1">
          <mxGeometry x="360" y="640" width="40" height="20" as="geometry" />
        </mxCell>
        <mxCell id="rZgHtx4meNHUPGNzYNCi-242" value="C" style="rounded=0;whiteSpace=wrap;html=1;" parent="1" vertex="1">
          <mxGeometry x="360" y="660" width="40" height="20" as="geometry" />
        </mxCell>
        <mxCell id="rZgHtx4meNHUPGNzYNCi-244" value="F" style="rounded=0;whiteSpace=wrap;html=1;" parent="1" vertex="1">
          <mxGeometry x="360" y="680" width="40" height="20" as="geometry" />
        </mxCell>
        <mxCell id="rZgHtx4meNHUPGNzYNCi-245" value="F" style="rounded=0;whiteSpace=wrap;html=1;" parent="1" vertex="1">
          <mxGeometry x="360" y="700" width="40" height="20" as="geometry" />
        </mxCell>
        <mxCell id="rZgHtx4meNHUPGNzYNCi-248" value="C" style="rounded=0;whiteSpace=wrap;html=1;" parent="1" vertex="1">
          <mxGeometry x="360" y="720" width="40" height="20" as="geometry" />
        </mxCell>
        <mxCell id="rZgHtx4meNHUPGNzYNCi-249" value="" style="rounded=0;whiteSpace=wrap;html=1;" parent="1" vertex="1">
          <mxGeometry x="360" y="740" width="40" height="20" as="geometry" />
        </mxCell>
        <mxCell id="rZgHtx4meNHUPGNzYNCi-250" value="1" style="rounded=0;whiteSpace=wrap;html=1;" parent="1" vertex="1">
          <mxGeometry x="400" y="600" width="40" height="20" as="geometry" />
        </mxCell>
        <mxCell id="rZgHtx4meNHUPGNzYNCi-251" value="" style="rounded=0;whiteSpace=wrap;html=1;" parent="1" vertex="1">
          <mxGeometry x="400" y="620" width="40" height="20" as="geometry" />
        </mxCell>
        <mxCell id="rZgHtx4meNHUPGNzYNCi-252" value="C" style="rounded=0;whiteSpace=wrap;html=1;" parent="1" vertex="1">
          <mxGeometry x="400" y="640" width="40" height="20" as="geometry" />
        </mxCell>
        <mxCell id="rZgHtx4meNHUPGNzYNCi-253" value="C" style="rounded=0;whiteSpace=wrap;html=1;" parent="1" vertex="1">
          <mxGeometry x="400" y="660" width="40" height="20" as="geometry" />
        </mxCell>
        <mxCell id="rZgHtx4meNHUPGNzYNCi-255" value="F" style="rounded=0;whiteSpace=wrap;html=1;" parent="1" vertex="1">
          <mxGeometry x="400" y="680" width="40" height="20" as="geometry" />
        </mxCell>
        <mxCell id="rZgHtx4meNHUPGNzYNCi-256" value="F" style="rounded=0;whiteSpace=wrap;html=1;" parent="1" vertex="1">
          <mxGeometry x="400" y="700" width="40" height="20" as="geometry" />
        </mxCell>
        <mxCell id="rZgHtx4meNHUPGNzYNCi-259" value="C" style="rounded=0;whiteSpace=wrap;html=1;" parent="1" vertex="1">
          <mxGeometry x="400" y="720" width="40" height="20" as="geometry" />
        </mxCell>
        <mxCell id="rZgHtx4meNHUPGNzYNCi-260" value="" style="rounded=0;whiteSpace=wrap;html=1;" parent="1" vertex="1">
          <mxGeometry x="400" y="740" width="40" height="20" as="geometry" />
        </mxCell>
        <mxCell id="rZgHtx4meNHUPGNzYNCi-261" value=":" style="rounded=0;whiteSpace=wrap;html=1;" parent="1" vertex="1">
          <mxGeometry x="440" y="600" width="40" height="20" as="geometry" />
        </mxCell>
        <mxCell id="rZgHtx4meNHUPGNzYNCi-262" value="" style="rounded=0;whiteSpace=wrap;html=1;" parent="1" vertex="1">
          <mxGeometry x="440" y="620" width="40" height="20" as="geometry" />
        </mxCell>
        <mxCell id="rZgHtx4meNHUPGNzYNCi-263" value="" style="rounded=0;whiteSpace=wrap;html=1;" parent="1" vertex="1">
          <mxGeometry x="440" y="640" width="40" height="20" as="geometry" />
        </mxCell>
        <mxCell id="rZgHtx4meNHUPGNzYNCi-264" value="E" style="rounded=0;whiteSpace=wrap;html=1;" parent="1" vertex="1">
          <mxGeometry x="440" y="660" width="40" height="20" as="geometry" />
        </mxCell>
        <mxCell id="rZgHtx4meNHUPGNzYNCi-266" value="" style="rounded=0;whiteSpace=wrap;html=1;" parent="1" vertex="1">
          <mxGeometry x="440" y="680" width="40" height="20" as="geometry" />
        </mxCell>
        <mxCell id="rZgHtx4meNHUPGNzYNCi-267" value="" style="rounded=0;whiteSpace=wrap;html=1;" parent="1" vertex="1">
          <mxGeometry x="440" y="700" width="40" height="20" as="geometry" />
        </mxCell>
        <mxCell id="rZgHtx4meNHUPGNzYNCi-270" value="" style="rounded=0;whiteSpace=wrap;html=1;" parent="1" vertex="1">
          <mxGeometry x="440" y="720" width="40" height="20" as="geometry" />
        </mxCell>
        <mxCell id="rZgHtx4meNHUPGNzYNCi-271" value="" style="rounded=0;whiteSpace=wrap;html=1;" parent="1" vertex="1">
          <mxGeometry x="440" y="740" width="40" height="20" as="geometry" />
        </mxCell>
        <mxCell id="rZgHtx4meNHUPGNzYNCi-272" value="x" style="rounded=0;whiteSpace=wrap;html=1;" parent="1" vertex="1">
          <mxGeometry x="480" y="600" width="40" height="20" as="geometry" />
        </mxCell>
        <mxCell id="rZgHtx4meNHUPGNzYNCi-273" value="" style="rounded=0;whiteSpace=wrap;html=1;" parent="1" vertex="1">
          <mxGeometry x="480" y="620" width="40" height="20" as="geometry" />
        </mxCell>
        <mxCell id="rZgHtx4meNHUPGNzYNCi-274" value="" style="rounded=0;whiteSpace=wrap;html=1;" parent="1" vertex="1">
          <mxGeometry x="480" y="640" width="40" height="20" as="geometry" />
        </mxCell>
        <mxCell id="rZgHtx4meNHUPGNzYNCi-275" value="" style="rounded=0;whiteSpace=wrap;html=1;" parent="1" vertex="1">
          <mxGeometry x="480" y="660" width="40" height="20" as="geometry" />
        </mxCell>
        <mxCell id="rZgHtx4meNHUPGNzYNCi-277" value="F" style="rounded=0;whiteSpace=wrap;html=1;" parent="1" vertex="1">
          <mxGeometry x="480" y="680" width="40" height="20" as="geometry" />
        </mxCell>
        <mxCell id="rZgHtx4meNHUPGNzYNCi-278" value="F" style="rounded=0;whiteSpace=wrap;html=1;" parent="1" vertex="1">
          <mxGeometry x="480" y="700" width="40" height="20" as="geometry" />
        </mxCell>
        <mxCell id="rZgHtx4meNHUPGNzYNCi-281" value="" style="rounded=0;whiteSpace=wrap;html=1;" parent="1" vertex="1">
          <mxGeometry x="480" y="720" width="40" height="20" as="geometry" />
        </mxCell>
        <mxCell id="rZgHtx4meNHUPGNzYNCi-282" value="" style="rounded=0;whiteSpace=wrap;html=1;" parent="1" vertex="1">
          <mxGeometry x="480" y="740" width="40" height="20" as="geometry" />
        </mxCell>
        <mxCell id="rZgHtx4meNHUPGNzYNCi-283" value=";" style="rounded=0;whiteSpace=wrap;html=1;" parent="1" vertex="1">
          <mxGeometry x="520" y="600" width="40" height="20" as="geometry" />
        </mxCell>
        <mxCell id="rZgHtx4meNHUPGNzYNCi-284" value="" style="rounded=0;whiteSpace=wrap;html=1;" parent="1" vertex="1">
          <mxGeometry x="520" y="620" width="40" height="20" as="geometry" />
        </mxCell>
        <mxCell id="rZgHtx4meNHUPGNzYNCi-285" value="" style="rounded=0;whiteSpace=wrap;html=1;" parent="1" vertex="1">
          <mxGeometry x="520" y="640" width="40" height="20" as="geometry" />
        </mxCell>
        <mxCell id="rZgHtx4meNHUPGNzYNCi-286" value="" style="rounded=0;whiteSpace=wrap;html=1;" parent="1" vertex="1">
          <mxGeometry x="520" y="660" width="40" height="20" as="geometry" />
        </mxCell>
        <mxCell id="rZgHtx4meNHUPGNzYNCi-288" value="" style="rounded=0;whiteSpace=wrap;html=1;" parent="1" vertex="1">
          <mxGeometry x="520" y="680" width="40" height="20" as="geometry" />
        </mxCell>
        <mxCell id="rZgHtx4meNHUPGNzYNCi-289" value="I" style="rounded=0;whiteSpace=wrap;html=1;" parent="1" vertex="1">
          <mxGeometry x="520" y="700" width="40" height="20" as="geometry" />
        </mxCell>
        <mxCell id="rZgHtx4meNHUPGNzYNCi-292" value="" style="rounded=0;whiteSpace=wrap;html=1;" parent="1" vertex="1">
          <mxGeometry x="520" y="720" width="40" height="20" as="geometry" />
        </mxCell>
        <mxCell id="rZgHtx4meNHUPGNzYNCi-293" value="" style="rounded=0;whiteSpace=wrap;html=1;" parent="1" vertex="1">
          <mxGeometry x="520" y="740" width="40" height="20" as="geometry" />
        </mxCell>
        <mxCell id="rZgHtx4meNHUPGNzYNCi-294" value="}" style="rounded=0;whiteSpace=wrap;html=1;" parent="1" vertex="1">
          <mxGeometry x="560" y="600" width="40" height="20" as="geometry" />
        </mxCell>
        <mxCell id="rZgHtx4meNHUPGNzYNCi-295" value="" style="rounded=0;whiteSpace=wrap;html=1;" parent="1" vertex="1">
          <mxGeometry x="560" y="620" width="40" height="20" as="geometry" />
        </mxCell>
        <mxCell id="rZgHtx4meNHUPGNzYNCi-296" value="" style="rounded=0;whiteSpace=wrap;html=1;" parent="1" vertex="1">
          <mxGeometry x="560" y="640" width="40" height="20" as="geometry" />
        </mxCell>
        <mxCell id="rZgHtx4meNHUPGNzYNCi-297" value="" style="rounded=0;whiteSpace=wrap;html=1;" parent="1" vertex="1">
          <mxGeometry x="560" y="660" width="40" height="20" as="geometry" />
        </mxCell>
        <mxCell id="rZgHtx4meNHUPGNzYNCi-299" value="" style="rounded=0;whiteSpace=wrap;html=1;" parent="1" vertex="1">
          <mxGeometry x="560" y="680" width="40" height="20" as="geometry" />
        </mxCell>
        <mxCell id="rZgHtx4meNHUPGNzYNCi-300" value="" style="rounded=0;whiteSpace=wrap;html=1;" parent="1" vertex="1">
          <mxGeometry x="560" y="700" width="40" height="20" as="geometry" />
        </mxCell>
        <mxCell id="rZgHtx4meNHUPGNzYNCi-303" value="J" style="rounded=0;whiteSpace=wrap;html=1;" parent="1" vertex="1">
          <mxGeometry x="560" y="720" width="40" height="20" as="geometry" />
        </mxCell>
        <mxCell id="rZgHtx4meNHUPGNzYNCi-304" value="" style="rounded=0;whiteSpace=wrap;html=1;" parent="1" vertex="1">
          <mxGeometry x="560" y="740" width="40" height="20" as="geometry" />
        </mxCell>
        <mxCell id="rZgHtx4meNHUPGNzYNCi-305" value="J" style="ellipse;whiteSpace=wrap;html=1;" parent="1" vertex="1">
          <mxGeometry x="290" y="740" width="20" height="20" as="geometry" />
        </mxCell>
        <mxCell id="rZgHtx4meNHUPGNzYNCi-306" value="J" style="ellipse;whiteSpace=wrap;html=1;" parent="1" vertex="1">
          <mxGeometry x="570" y="720" width="20" height="20" as="geometry" />
        </mxCell>
        <mxCell id="rZgHtx4meNHUPGNzYNCi-307" value="" style="endArrow=classic;html=1;rounded=0;" parent="1" edge="1">
          <mxGeometry width="50" height="50" relative="1" as="geometry">
            <mxPoint x="320" y="550" as="sourcePoint" />
            <mxPoint x="320" y="590" as="targetPoint" />
          </mxGeometry>
        </mxCell>
        <mxCell id="rZgHtx4meNHUPGNzYNCi-308" value="C = D, F = G = H" style="text;html=1;align=left;verticalAlign=middle;whiteSpace=wrap;rounded=0;" parent="1" vertex="1">
          <mxGeometry x="330" y="560" width="100" height="20" as="geometry" />
        </mxCell>
        <mxCell id="rZgHtx4meNHUPGNzYNCi-461" style="edgeStyle=none;rounded=0;orthogonalLoop=1;jettySize=auto;html=1;exitX=1;exitY=0.5;exitDx=0;exitDy=0;entryX=0;entryY=0.5;entryDx=0;entryDy=0;" parent="1" source="rZgHtx4meNHUPGNzYNCi-454" target="rZgHtx4meNHUPGNzYNCi-455" edge="1">
          <mxGeometry relative="1" as="geometry" />
        </mxCell>
        <mxCell id="rZgHtx4meNHUPGNzYNCi-481" value="{" style="edgeLabel;html=1;align=center;verticalAlign=middle;resizable=0;points=[];" parent="rZgHtx4meNHUPGNzYNCi-461" vertex="1" connectable="0">
          <mxGeometry x="-0.0333" y="-1" relative="1" as="geometry">
            <mxPoint x="1" y="-1" as="offset" />
          </mxGeometry>
        </mxCell>
        <mxCell id="rZgHtx4meNHUPGNzYNCi-454" value="A" style="ellipse;whiteSpace=wrap;html=1;" parent="1" vertex="1">
          <mxGeometry x="200" y="880" width="40" height="40" as="geometry" />
        </mxCell>
        <mxCell id="rZgHtx4meNHUPGNzYNCi-463" style="edgeStyle=none;rounded=0;orthogonalLoop=1;jettySize=auto;html=1;exitX=1;exitY=0;exitDx=0;exitDy=0;entryX=0;entryY=0;entryDx=0;entryDy=0;" parent="1" source="rZgHtx4meNHUPGNzYNCi-455" target="rZgHtx4meNHUPGNzYNCi-456" edge="1">
          <mxGeometry relative="1" as="geometry" />
        </mxCell>
        <mxCell id="rZgHtx4meNHUPGNzYNCi-484" value="0" style="edgeLabel;html=1;align=center;verticalAlign=middle;resizable=0;points=[];" parent="rZgHtx4meNHUPGNzYNCi-463" vertex="1" connectable="0">
          <mxGeometry x="-0.0387" y="1" relative="1" as="geometry">
            <mxPoint x="1" as="offset" />
          </mxGeometry>
        </mxCell>
        <mxCell id="rZgHtx4meNHUPGNzYNCi-464" style="edgeStyle=none;rounded=0;orthogonalLoop=1;jettySize=auto;html=1;exitX=1;exitY=1;exitDx=0;exitDy=0;entryX=0;entryY=1;entryDx=0;entryDy=0;" parent="1" source="rZgHtx4meNHUPGNzYNCi-455" target="rZgHtx4meNHUPGNzYNCi-456" edge="1">
          <mxGeometry relative="1" as="geometry" />
        </mxCell>
        <mxCell id="rZgHtx4meNHUPGNzYNCi-486" value="1" style="edgeLabel;html=1;align=center;verticalAlign=middle;resizable=0;points=[];" parent="rZgHtx4meNHUPGNzYNCi-464" vertex="1" connectable="0">
          <mxGeometry x="-0.0258" y="-1" relative="1" as="geometry">
            <mxPoint x="1" as="offset" />
          </mxGeometry>
        </mxCell>
        <mxCell id="rZgHtx4meNHUPGNzYNCi-455" value="B" style="ellipse;whiteSpace=wrap;html=1;" parent="1" vertex="1">
          <mxGeometry x="280" y="880" width="40" height="40" as="geometry" />
        </mxCell>
        <mxCell id="rZgHtx4meNHUPGNzYNCi-472" style="edgeStyle=none;rounded=0;orthogonalLoop=1;jettySize=auto;html=1;exitX=1;exitY=0.5;exitDx=0;exitDy=0;entryX=0;entryY=0.5;entryDx=0;entryDy=0;" parent="1" source="rZgHtx4meNHUPGNzYNCi-456" target="rZgHtx4meNHUPGNzYNCi-457" edge="1">
          <mxGeometry relative="1" as="geometry" />
        </mxCell>
        <mxCell id="rZgHtx4meNHUPGNzYNCi-489" value=":" style="edgeLabel;html=1;align=center;verticalAlign=middle;resizable=0;points=[];" parent="rZgHtx4meNHUPGNzYNCi-472" vertex="1" connectable="0">
          <mxGeometry x="-0.3" relative="1" as="geometry">
            <mxPoint x="6" as="offset" />
          </mxGeometry>
        </mxCell>
        <mxCell id="rZgHtx4meNHUPGNzYNCi-456" value="C" style="ellipse;whiteSpace=wrap;html=1;" parent="1" vertex="1">
          <mxGeometry x="360" y="880" width="40" height="40" as="geometry" />
        </mxCell>
        <mxCell id="rZgHtx4meNHUPGNzYNCi-474" style="edgeStyle=none;rounded=0;orthogonalLoop=1;jettySize=auto;html=1;exitX=1;exitY=0.5;exitDx=0;exitDy=0;entryX=0;entryY=0.5;entryDx=0;entryDy=0;" parent="1" source="rZgHtx4meNHUPGNzYNCi-457" target="rZgHtx4meNHUPGNzYNCi-458" edge="1">
          <mxGeometry relative="1" as="geometry" />
        </mxCell>
        <mxCell id="rZgHtx4meNHUPGNzYNCi-490" value="x" style="edgeLabel;html=1;align=center;verticalAlign=middle;resizable=0;points=[];" parent="rZgHtx4meNHUPGNzYNCi-474" vertex="1" connectable="0">
          <mxGeometry x="-0.0667" relative="1" as="geometry">
            <mxPoint x="1" as="offset" />
          </mxGeometry>
        </mxCell>
        <mxCell id="rZgHtx4meNHUPGNzYNCi-480" style="edgeStyle=none;rounded=0;orthogonalLoop=1;jettySize=auto;html=1;exitX=1;exitY=0;exitDx=0;exitDy=0;entryX=0;entryY=0;entryDx=0;entryDy=0;" parent="1" source="rZgHtx4meNHUPGNzYNCi-457" target="rZgHtx4meNHUPGNzYNCi-458" edge="1">
          <mxGeometry relative="1" as="geometry" />
        </mxCell>
        <mxCell id="rZgHtx4meNHUPGNzYNCi-491" value="0" style="edgeLabel;html=1;align=center;verticalAlign=middle;resizable=0;points=[];" parent="rZgHtx4meNHUPGNzYNCi-480" vertex="1" connectable="0">
          <mxGeometry x="-0.2449" relative="1" as="geometry">
            <mxPoint x="6" y="-1" as="offset" />
          </mxGeometry>
        </mxCell>
        <mxCell id="rZgHtx4meNHUPGNzYNCi-492" style="edgeStyle=none;rounded=0;orthogonalLoop=1;jettySize=auto;html=1;exitX=1;exitY=1;exitDx=0;exitDy=0;entryX=0;entryY=1;entryDx=0;entryDy=0;" parent="1" source="rZgHtx4meNHUPGNzYNCi-457" target="rZgHtx4meNHUPGNzYNCi-458" edge="1">
          <mxGeometry relative="1" as="geometry" />
        </mxCell>
        <mxCell id="rZgHtx4meNHUPGNzYNCi-493" value="1" style="edgeLabel;html=1;align=center;verticalAlign=middle;resizable=0;points=[];" parent="rZgHtx4meNHUPGNzYNCi-492" vertex="1" connectable="0">
          <mxGeometry x="0.1547" relative="1" as="geometry">
            <mxPoint x="-4" y="1" as="offset" />
          </mxGeometry>
        </mxCell>
        <mxCell id="rZgHtx4meNHUPGNzYNCi-457" value="E" style="ellipse;whiteSpace=wrap;html=1;" parent="1" vertex="1">
          <mxGeometry x="440" y="880" width="40" height="40" as="geometry" />
        </mxCell>
        <mxCell id="rZgHtx4meNHUPGNzYNCi-502" style="edgeStyle=none;rounded=0;orthogonalLoop=1;jettySize=auto;html=1;exitX=1;exitY=1;exitDx=0;exitDy=0;entryX=0;entryY=1;entryDx=0;entryDy=0;" parent="1" source="rZgHtx4meNHUPGNzYNCi-458" target="rZgHtx4meNHUPGNzYNCi-459" edge="1">
          <mxGeometry relative="1" as="geometry" />
        </mxCell>
        <mxCell id="rZgHtx4meNHUPGNzYNCi-503" value=";" style="edgeLabel;html=1;align=center;verticalAlign=middle;resizable=0;points=[];" parent="rZgHtx4meNHUPGNzYNCi-502" vertex="1" connectable="0">
          <mxGeometry x="-0.0387" y="-2" relative="1" as="geometry">
            <mxPoint x="1" y="-1" as="offset" />
          </mxGeometry>
        </mxCell>
        <mxCell id="rZgHtx4meNHUPGNzYNCi-458" value="F" style="ellipse;whiteSpace=wrap;html=1;" parent="1" vertex="1">
          <mxGeometry x="520" y="880" width="40" height="40" as="geometry" />
        </mxCell>
        <mxCell id="rZgHtx4meNHUPGNzYNCi-507" style="edgeStyle=none;rounded=0;orthogonalLoop=1;jettySize=auto;html=1;exitX=0.5;exitY=0;exitDx=0;exitDy=0;entryX=1;entryY=0;entryDx=0;entryDy=0;" parent="1" source="rZgHtx4meNHUPGNzYNCi-459" target="rZgHtx4meNHUPGNzYNCi-456" edge="1">
          <mxGeometry relative="1" as="geometry">
            <Array as="points">
              <mxPoint x="620" y="840" />
              <mxPoint x="394" y="840" />
            </Array>
          </mxGeometry>
        </mxCell>
        <mxCell id="rZgHtx4meNHUPGNzYNCi-511" value="0" style="edgeLabel;html=1;align=center;verticalAlign=middle;resizable=0;points=[];" parent="rZgHtx4meNHUPGNzYNCi-507" vertex="1" connectable="0">
          <mxGeometry x="-0.8928" y="1" relative="1" as="geometry">
            <mxPoint x="1" y="-3" as="offset" />
          </mxGeometry>
        </mxCell>
        <mxCell id="rZgHtx4meNHUPGNzYNCi-508" style="edgeStyle=none;rounded=0;orthogonalLoop=1;jettySize=auto;html=1;exitX=1;exitY=0.5;exitDx=0;exitDy=0;entryX=0;entryY=0.5;entryDx=0;entryDy=0;" parent="1" source="rZgHtx4meNHUPGNzYNCi-459" target="rZgHtx4meNHUPGNzYNCi-460" edge="1">
          <mxGeometry relative="1" as="geometry" />
        </mxCell>
        <mxCell id="rZgHtx4meNHUPGNzYNCi-510" value="}" style="edgeLabel;html=1;align=center;verticalAlign=middle;resizable=0;points=[];" parent="rZgHtx4meNHUPGNzYNCi-508" vertex="1" connectable="0">
          <mxGeometry x="0.0286" relative="1" as="geometry">
            <mxPoint x="-1" as="offset" />
          </mxGeometry>
        </mxCell>
        <mxCell id="rZgHtx4meNHUPGNzYNCi-512" style="edgeStyle=none;rounded=0;orthogonalLoop=1;jettySize=auto;html=1;exitX=0.5;exitY=1;exitDx=0;exitDy=0;entryX=1;entryY=1;entryDx=0;entryDy=0;" parent="1" source="rZgHtx4meNHUPGNzYNCi-459" target="rZgHtx4meNHUPGNzYNCi-456" edge="1">
          <mxGeometry relative="1" as="geometry">
            <Array as="points">
              <mxPoint x="620" y="960" />
              <mxPoint x="394" y="960" />
            </Array>
          </mxGeometry>
        </mxCell>
        <mxCell id="rZgHtx4meNHUPGNzYNCi-513" value="1" style="edgeLabel;html=1;align=center;verticalAlign=middle;resizable=0;points=[];" parent="rZgHtx4meNHUPGNzYNCi-512" vertex="1" connectable="0">
          <mxGeometry x="-0.8963" y="1" relative="1" as="geometry">
            <mxPoint x="-1" y="4" as="offset" />
          </mxGeometry>
        </mxCell>
        <mxCell id="rZgHtx4meNHUPGNzYNCi-459" value="I" style="ellipse;whiteSpace=wrap;html=1;" parent="1" vertex="1">
          <mxGeometry x="600" y="880" width="40" height="40" as="geometry" />
        </mxCell>
        <mxCell id="rZgHtx4meNHUPGNzYNCi-460" value="" style="ellipse;whiteSpace=wrap;html=1;" parent="1" vertex="1">
          <mxGeometry x="680" y="880" width="40" height="40" as="geometry" />
        </mxCell>
        <mxCell id="rZgHtx4meNHUPGNzYNCi-468" style="edgeStyle=none;rounded=0;orthogonalLoop=1;jettySize=auto;html=1;exitX=0.5;exitY=0;exitDx=0;exitDy=0;entryX=0;entryY=0;entryDx=0;entryDy=0;" parent="1" source="rZgHtx4meNHUPGNzYNCi-456" target="rZgHtx4meNHUPGNzYNCi-456" edge="1">
          <mxGeometry relative="1" as="geometry">
            <Array as="points">
              <mxPoint x="380" y="860" />
              <mxPoint x="366" y="860" />
            </Array>
          </mxGeometry>
        </mxCell>
        <mxCell id="rZgHtx4meNHUPGNzYNCi-487" value="0" style="edgeLabel;html=1;align=center;verticalAlign=middle;resizable=0;points=[];" parent="rZgHtx4meNHUPGNzYNCi-468" vertex="1" connectable="0">
          <mxGeometry relative="1" as="geometry">
            <mxPoint x="2" as="offset" />
          </mxGeometry>
        </mxCell>
        <mxCell id="rZgHtx4meNHUPGNzYNCi-470" style="edgeStyle=none;rounded=0;orthogonalLoop=1;jettySize=auto;html=1;exitX=0.5;exitY=1;exitDx=0;exitDy=0;entryX=0;entryY=1;entryDx=0;entryDy=0;" parent="1" source="rZgHtx4meNHUPGNzYNCi-456" target="rZgHtx4meNHUPGNzYNCi-456" edge="1">
          <mxGeometry relative="1" as="geometry">
            <Array as="points">
              <mxPoint x="380" y="940" />
              <mxPoint x="366" y="940" />
            </Array>
          </mxGeometry>
        </mxCell>
        <mxCell id="rZgHtx4meNHUPGNzYNCi-488" value="1" style="edgeLabel;html=1;align=center;verticalAlign=middle;resizable=0;points=[];" parent="rZgHtx4meNHUPGNzYNCi-470" vertex="1" connectable="0">
          <mxGeometry y="-1" relative="1" as="geometry">
            <mxPoint x="2" y="1" as="offset" />
          </mxGeometry>
        </mxCell>
        <mxCell id="rZgHtx4meNHUPGNzYNCi-499" style="edgeStyle=none;rounded=0;orthogonalLoop=1;jettySize=auto;html=1;exitX=1;exitY=0;exitDx=0;exitDy=0;entryX=0;entryY=0;entryDx=0;entryDy=0;" parent="1" source="rZgHtx4meNHUPGNzYNCi-458" target="rZgHtx4meNHUPGNzYNCi-458" edge="1">
          <mxGeometry relative="1" as="geometry">
            <Array as="points">
              <mxPoint x="554" y="860" />
              <mxPoint x="526" y="860" />
            </Array>
          </mxGeometry>
        </mxCell>
        <mxCell id="rZgHtx4meNHUPGNzYNCi-505" value="0" style="edgeLabel;html=1;align=center;verticalAlign=middle;resizable=0;points=[];" parent="rZgHtx4meNHUPGNzYNCi-499" vertex="1" connectable="0">
          <mxGeometry x="-0.138" y="1" relative="1" as="geometry">
            <mxPoint x="-6" y="-1" as="offset" />
          </mxGeometry>
        </mxCell>
        <mxCell id="rZgHtx4meNHUPGNzYNCi-500" style="edgeStyle=none;rounded=0;orthogonalLoop=1;jettySize=auto;html=1;exitX=1;exitY=1;exitDx=0;exitDy=0;entryX=0;entryY=1;entryDx=0;entryDy=0;" parent="1" source="rZgHtx4meNHUPGNzYNCi-458" target="rZgHtx4meNHUPGNzYNCi-458" edge="1">
          <mxGeometry relative="1" as="geometry">
            <Array as="points">
              <mxPoint x="554" y="940" />
              <mxPoint x="526" y="940" />
            </Array>
          </mxGeometry>
        </mxCell>
        <mxCell id="rZgHtx4meNHUPGNzYNCi-506" value="1" style="edgeLabel;html=1;align=center;verticalAlign=middle;resizable=0;points=[];" parent="rZgHtx4meNHUPGNzYNCi-500" vertex="1" connectable="0">
          <mxGeometry x="-0.0979" y="-1" relative="1" as="geometry">
            <mxPoint x="-4" y="1" as="offset" />
          </mxGeometry>
        </mxCell>
        <mxCell id="rZgHtx4meNHUPGNzYNCi-501" style="edgeStyle=none;rounded=0;orthogonalLoop=1;jettySize=auto;html=1;exitX=1;exitY=0.5;exitDx=0;exitDy=0;entryX=1;entryY=0;entryDx=0;entryDy=0;" parent="1" source="rZgHtx4meNHUPGNzYNCi-458" target="rZgHtx4meNHUPGNzYNCi-458" edge="1">
          <mxGeometry relative="1" as="geometry">
            <Array as="points">
              <mxPoint x="580" y="900" />
              <mxPoint x="580" y="886" />
            </Array>
          </mxGeometry>
        </mxCell>
        <mxCell id="rZgHtx4meNHUPGNzYNCi-504" value="x" style="edgeLabel;html=1;align=center;verticalAlign=middle;resizable=0;points=[];" parent="rZgHtx4meNHUPGNzYNCi-501" vertex="1" connectable="0">
          <mxGeometry x="-0.0511" y="-1" relative="1" as="geometry">
            <mxPoint x="-11" y="8" as="offset" />
          </mxGeometry>
        </mxCell>
        <mxCell id="rZgHtx4meNHUPGNzYNCi-509" value="J" style="ellipse;whiteSpace=wrap;html=1;" parent="1" vertex="1">
          <mxGeometry x="685" y="885" width="30" height="30" as="geometry" />
        </mxCell>
        <mxCell id="07XbhLU2eBvGw_OJbq3y-45" value="0" style="rounded=0;whiteSpace=wrap;html=1;" vertex="1" parent="1">
          <mxGeometry x="240" y="620" width="40" height="20" as="geometry" />
        </mxCell>
        <mxCell id="07XbhLU2eBvGw_OJbq3y-46" value="1" style="rounded=0;whiteSpace=wrap;html=1;" vertex="1" parent="1">
          <mxGeometry x="240" y="640" width="40" height="20" as="geometry" />
        </mxCell>
        <mxCell id="07XbhLU2eBvGw_OJbq3y-47" value="2" style="rounded=0;whiteSpace=wrap;html=1;" vertex="1" parent="1">
          <mxGeometry x="240" y="660" width="40" height="20" as="geometry" />
        </mxCell>
        <mxCell id="07XbhLU2eBvGw_OJbq3y-48" value="3" style="rounded=0;whiteSpace=wrap;html=1;" vertex="1" parent="1">
          <mxGeometry x="240" y="680" width="40" height="20" as="geometry" />
        </mxCell>
        <mxCell id="07XbhLU2eBvGw_OJbq3y-49" value="4" style="rounded=0;whiteSpace=wrap;html=1;" vertex="1" parent="1">
          <mxGeometry x="240" y="700" width="40" height="20" as="geometry" />
        </mxCell>
        <mxCell id="07XbhLU2eBvGw_OJbq3y-50" value="5" style="rounded=0;whiteSpace=wrap;html=1;" vertex="1" parent="1">
          <mxGeometry x="240" y="720" width="40" height="20" as="geometry" />
        </mxCell>
        <mxCell id="07XbhLU2eBvGw_OJbq3y-51" value="6" style="rounded=0;whiteSpace=wrap;html=1;" vertex="1" parent="1">
          <mxGeometry x="240" y="740" width="40" height="20" as="geometry" />
        </mxCell>
        <mxCell id="07XbhLU2eBvGw_OJbq3y-53" value="Teniendo en cuenta que &quot; &quot;, &quot;\t&quot; y &quot;\n&quot; son ignorados, acepta expresiones del estilo:" style="text;html=1;align=left;verticalAlign=middle;whiteSpace=wrap;rounded=0;" vertex="1" parent="1">
          <mxGeometry x="200" y="980" width="450" height="20" as="geometry" />
        </mxCell>
        <mxCell id="07XbhLU2eBvGw_OJbq3y-54" value="{&lt;div&gt;&amp;nbsp; 000 : 11;&lt;div&gt;&amp;nbsp; 001 : 01;&lt;/div&gt;&lt;div&gt;&amp;nbsp; 010 : 10;&lt;/div&gt;&lt;div&gt;&amp;nbsp; 011 : 11;&lt;/div&gt;&lt;div&gt;&amp;nbsp; 100 : 00;&lt;/div&gt;&lt;div&gt;&amp;nbsp; 101 : 10;&lt;/div&gt;&lt;div&gt;&amp;nbsp; 110 : 01;&lt;/div&gt;&lt;div&gt;&amp;nbsp; 111 : 10;&lt;/div&gt;&lt;div&gt;}&lt;/div&gt;&lt;/div&gt;" style="text;html=1;align=left;verticalAlign=middle;whiteSpace=wrap;rounded=0;" vertex="1" parent="1">
          <mxGeometry x="200" y="1020" width="70" height="110" as="geometry" />
        </mxCell>
      </root>
    </mxGraphModel>
  </diagram>
</mxfile>
